<svg id="Layer_1" data-name="Layer 1" xmlns="http://www.w3.org/2000/svg" viewBox="0 0 16 16"><defs><style>.cls-1{fill:#341e00;}.cls-1,.cls-2{fill-rule:evenodd;}.cls-2{fill:#8e816f;}</style></defs><path class="cls-1" d="M9.2,4.32c.78.36.94-.72.29-1a8.1,8.1,0,0,0-1.74-.06c.07-.13,0,0,.09-.13L7.93,3c.45-.49-.43-.76-.47-.3,0,0,.92-.29,0,.52-.66,0-1.47-.1-1.66.39A.73.73,0,0,0,6,4.33c.26.23.54,0,.77,0,.3,1.62.13,1.12-.38,2.72A8.54,8.54,0,0,0,6,8.8a3,3,0,0,0,1.75.48v.58c0,.44-.14.22-.14.4,0,.93.13.22.14.77v1.42c-.72,0-1.09-.07-1.48.36-.1.12-.44.66.15.66h3.4c.66,0,.17-.72,0-.84a2.82,2.82,0,0,0-1.4-.18V10.87c.1-.2-.14.15.05,0s.11-.16.11-.66c-.11,0-.16,0-.16-.1,0-1.12-.14-.65.85-.94A7,7,0,0,0,10,8.8,7.68,7.68,0,0,0,9.6,6.89C9.12,5.37,8.94,5.78,9.2,4.32Z"/><path class="cls-1" d="M12.07,14.28v1.54c-.05,0,0,0-.1,0H11a9.32,9.32,0,0,1-1.19,0l0-1.58,2.19,0c.24,0,0,0,.14,0Zm-4.62,0,2.17,0,0,1.6-2.17,0,0-1.6ZM5,14.26l2.31,0,0,1.6-2.31,0,0-1.6Zm-2.33,0,2.22,0,0,1.58-2.1,0c-.24,0-.06,0-.14,0V14.28Zm9.5,1.54c.09,0-.09,0,.14,0l2.27,0h0V14.26l-2.45,0v1.54ZM2.56,14.28c-.09,0,.11,0-.14,0H2c-.37,0-1.42,0-1.65,0a3.46,3.46,0,0,0,0,.79l0,.78a18.3,18.3,0,0,0,2.11,0c.09,0,0,0,.09,0V14.28ZM.19,6.37s0,0,0,.09v9.48H14.78l0-9.65c.08-.07,0,0,.07,0,.24.24.3.54.54.61a7.21,7.21,0,0,0-.56-.81A4.23,4.23,0,0,0,16,6.26,4.63,4.63,0,0,0,14.84,6c.2-.19.91-.53,1-.68-.2,0-.49.26-.74.42a.87.87,0,0,1-.29.14c0-.27.27-.84.21-1a1.19,1.19,0,0,0-.21.57,10.31,10.31,0,0,0-.42-1.61,5.11,5.11,0,0,0-.81-1.28c.07-.09.41.16.74.32a4.42,4.42,0,0,0,.76.37c-.06-.13,0-.06-.17-.15l-1.47-.75C13.73,2.16,15,2,15.3,1.76a17.66,17.66,0,0,0-1.93.49c.08-.26.86-1.17,1-1.49-.23.07-.42.49-.55.67a4.71,4.71,0,0,1-.52.73A10,10,0,0,1,12.73.53c-.07.06-.15-.12,0,.38l.36,1.14A7,7,0,0,0,10.67.61,10.32,10.32,0,0,0,7,.23c0-.06,0,0-.06-.1s0-.07,0-.12a7.57,7.57,0,0,0-4,1.12A6.19,6.19,0,0,0,.53,3.71,5.61,5.61,0,0,0,0,6.37Zm14.39.16.07-.18c.1,1.6,0,4.11,0,5.86v1.46c0,.08,0,.17,0,.25l0,.15c0,.11-.17.09-.17.09-.58,0-6.39,0-7,0s-6.83,0-7.15,0c-.07-.29,0-6.21,0-7.28V6.61c0-.14,0-.15,0-.24H.56a5.06,5.06,0,0,1,1.2-3.58A6.13,6.13,0,0,1,3.85,1.17C4.14,1,4.46.91,4.79.8A7,7,0,0,1,6.71.49c.37,0,.1,0,.26-.1a9.48,9.48,0,0,1,2.54,0,6.56,6.56,0,0,1,2.72,1.08c.35.22.56.46.71.55-.08.06-.07,0-.41-.16l-.38-.2c-.16-.07-.66-.36-.72-.31s.64.36.77.43l.91.48c-.4.22-1.71.41-2,.61.06,0,0,0,.08,0l1.88-.51c-.15.34-.89,1.2-1,1.47.17-.07.08,0,.29-.33l.51-.74c.13-.18.15-.26.32-.37a7.73,7.73,0,0,0,.48,1.43c.08-.12-.1-.49-.14-.64a6,6,0,0,1-.21-.69,4.89,4.89,0,0,1,1.25,3.28c-.27-.16-.44-.71-.72-.82.1.3.52.65.64.93a7.85,7.85,0,0,0-1.21-.19A4,4,0,0,0,14.56,6l-.14.12a7.35,7.35,0,0,0-.9.61c.27,0,.77-.49,1.07-.6,0,.17-.09.35-.13.51Z"/><path class="cls-1" d="M14.58,6.53c0,.06,0-.06,0,.09v.85c0,1.17-.06,6,0,6.65-4.71,0-9.58,0-14.27,0V6.37c-.06.09,0,.1,0,.24v.25c0,1.07,0,7,0,7.28.32.06,6.65,0,7.15,0s6.41,0,7,0c0,0,.15,0,.17-.09l0-.15c0-.08,0-.17,0-.25V12.21c0-1.75.08-4.26,0-5.86Z"/><path class="cls-1" d="M.19,6.37V16c.38.07,5.57,0,6.42,0H13c.5,0,1.11,0,1.59,0,.18,0,.18,0,.19-.16v-1.1c0-.76,0-8,0-8.44-.07,0,0-.07-.07,0l0,9.65H.23V6.46C.21,6.37.22,6.41.19,6.37Z"/><path class="cls-1" d="M3.81,14.63l.5.4c-.27.07-.28.15-.45.31l-.06.06A.56.56,0,0,0,3.37,15c.2-.22.31-.08.44-.4Zm-.9.36c.71.25.6.14.94.73.35-.68.19-.43.93-.73-.86-.25-.6-.16-.88-.54l-.08-.09C3.66,14.83,3.44,14.81,2.91,15Z"/><path class="cls-1" d="M10.94,14.63l0,0,0,0,0,0,.39.31c-.33.09-.31.21-.51.37A.58.58,0,0,0,10.5,15c.13-.14.13-.09.27-.18a.34.34,0,0,0,.17-.22ZM10,15c.68.2.65.21.94.73.36-.69.2-.43.94-.73-.92-.26-.59-.17-.9-.56l-.07-.07C10.79,14.83,10.56,14.81,10,15Z"/><path class="cls-1" d="M1.48,14.7l.38.3,0,0a.65.65,0,0,0-.3.15l-.09.12a.44.44,0,0,1-.12.1A.56.56,0,0,0,1,15l.15-.12c.16-.09.2-.06.29-.28l.09.07Zm0-.34-.06.06c-.34.44,0,.27-.9.57.69.2.65.21,1,.73.27-.54.23-.54.93-.73C1.76,14.77,1.69,14.91,1.44,14.36Z"/><path class="cls-1" d="M8.16,15c.18-.12.24,0,.36-.32l.08.07L9,15c-.39.1-.27.21-.52.37A.55.55,0,0,0,8.08,15L8.16,15Zm-.55,0c.7.23.62.16.94.73.34-.67.22-.45.94-.74-.62-.17-.69-.12-.92-.62-.16.14-.14.3-.35.42A2.74,2.74,0,0,1,7.61,15Z"/><path class="cls-1" d="M6.23,14.63l.5.4c-.3.08-.28.16-.39.27l-.12.1A.55.55,0,0,0,5.79,15c.13-.14.14-.09.27-.18a.34.34,0,0,0,.17-.22Zm-.9.36c.68.2.64.21.94.73.28-.54.24-.54.94-.73-.61-.22-.68-.08-.92-.63l0,0,0,0c-.14.18-.12.27-.3.38A2.92,2.92,0,0,1,5.33,15Z"/><path class="cls-1" d="M12.9,15a.94.94,0,0,0,.47-.32c.2.16.14.21.47.32-.17.15-.35.23-.45.42-.23-.15.06,0-.44-.38l0,0Zm.47-.59c-.17.17-.1.25-.35.41s-.42.12-.59.21a1.34,1.34,0,0,1,.63.24,3.08,3.08,0,0,1,.31.46c.13-.15.16-.38.32-.49a4.62,4.62,0,0,1,.62-.23C13.49,14.86,13.66,14.76,13.37,14.42Z"/><path class="cls-1" d="M5.08,15.66V14.28H7.31v1.54H5.08v-.16Zm0,.2,2.31,0,0-1.6L5,14.26Z"/><path class="cls-1" d="M7.5,14.28H9.6v1.54H7.5V14.28Zm0,1.58,2.17,0,0-1.6-2.17,0Z"/><path class="cls-1" d="M.36,15.83a18.3,18.3,0,0,0,2.11,0c.09,0,0,0,.09,0H.36V14.28H2.56c-.09,0,.11,0-.14,0H2c-.37,0-1.42,0-1.65,0a3.46,3.46,0,0,0,0,.79Z"/><path class="cls-1" d="M12.07,15.82H9.78V14.28h2.29c-.1,0,.1,0-.14,0l-2.19,0,0,1.58a9.32,9.32,0,0,0,1.19,0h1C12.06,15.85,12,15.85,12.07,15.82Z"/><path class="cls-1" d="M2.7,15.82c.08,0-.1,0,.14,0l2.1,0,0-1.58-2.22,0H4.89v1.54Z"/><path class="cls-2" d="M14.64,15.83H12.2c.09,0-.09,0,.14,0l2.27,0h0V14.26l-2.45,0h2.43Z"/></svg>