<svg id="Layer_1" data-name="Layer 1" xmlns="http://www.w3.org/2000/svg" viewBox="0 0 24 24"><defs><style>.cls-1{fill:#341e00;}.cls-1,.cls-2{fill-rule:evenodd;}.cls-2{fill:#8e816f;}</style></defs><path class="cls-1" d="M13.54,6.55c1,.53,1.22-1.06.39-1.53a9.6,9.6,0,0,0-2.25-.09c.09-.19,0,0,.11-.19a1.54,1.54,0,0,1,.12-.13c.58-.72-.55-1.12-.6-.44,0,0,1.18-.44,0,.76-.85,0-1.89-.15-2.14.58a1.26,1.26,0,0,0,.19,1c.34.34.7.05,1-.06.39,2.4.17,1.66-.49,4a14.56,14.56,0,0,0-.53,2.66,3.46,3.46,0,0,0,2.25.7c0,.29,0,.58,0,.87,0,.65-.19.32-.19.59,0,1.38.18.32.19,1.14V18.6c-.92,0-1.4-.12-1.9.53-.13.17-.57,1,.19,1H14.3c.85,0,.21-1.06,0-1.23a3.21,3.21,0,0,0-1.81-.27V16.26c.12-.3-.19.21.06-.08s.14-.23.15-1c-.16,0-.21,0-.21-.15,0-1.66-.19-1,1.09-1.39a8.85,8.85,0,0,0,1-.47,13.18,13.18,0,0,0-.47-2.83C13.45,8.11,13.21,8.72,13.54,6.55Z"/><path class="cls-1" d="M17.24,21.3v2.29c-.06,0,0,0-.12.05H15.8a11,11,0,0,1-1.53,0l0-2.35,2.83,0c.31,0,.05,0,.17.06Zm-5.95,0,2.8,0,0,2.38-2.8,0,0-2.38Zm-3.12,0,3,0,0,2.38-3,0,0-2.38Zm-3,0,2.86,0,0,2.35-2.71,0c-.3,0-.07,0-.18-.06V21.3Zm12.26,2.29c.11.07-.12,0,.18.06l2.92,0s0,0,0,0l0-2.33-3.16,0v2.29ZM5,21.3c-.13-.07.14,0-.18-.06H4.26c-.48,0-1.83,0-2.13,0a6.51,6.51,0,0,0,0,1.17l0,1.16a18.82,18.82,0,0,0,2.72,0c.12,0,.06,0,.13-.05V21.3ZM1.92,9.58c0,.07,0,0,.06.13V23.76H20.74V9.47c.09-.1,0-.05.08,0,.31.35.39.8.69.91a8.23,8.23,0,0,0-.72-1.21,5.58,5.58,0,0,0,1.54.26,5,5,0,0,0-1.49-.37c.25-.29,1.17-.79,1.25-1-.25,0-.63.38-.95.61a1.34,1.34,0,0,1-.37.22c0-.4.35-1.25.26-1.5a2.18,2.18,0,0,0-.26.85,16.23,16.23,0,0,0-.55-2.39,7.72,7.72,0,0,0-1-1.9c.09-.13.53.24.95.48a5.72,5.72,0,0,0,1,.54c-.08-.2,0-.08-.22-.22L19,3.63c.4-.29,2.08-.58,2.43-.87a18.55,18.55,0,0,0-2.49.72C19,3.1,20,1.74,20.19,1.27c-.29.11-.54.73-.7,1a6.91,6.91,0,0,1-.68,1.08,15.06,15.06,0,0,1-.7-2.42c-.09.09-.2-.18,0,.56l.46,1.69a9,9,0,0,0-3.14-2.13A11.7,11.7,0,0,0,10.69.48c-.06-.08,0,0-.07-.15s0-.09,0-.16A8.76,8.76,0,0,0,5.4,1.83a8.81,8.81,0,0,0-3,3.81,9.43,9.43,0,0,0-.68,3.94Zm18.56.24.1-.26c.12,2.36,0,6.08,0,8.68V20.4c0,.12,0,.25,0,.37l0,.22c0,.17-.22.14-.22.14-.74.06-8.25,0-9,0s-8.81.06-9.22,0c-.09-.44,0-9.21,0-10.79V9.94c0-.21,0-.23.06-.36H2.4A8.2,8.2,0,0,1,4,4.29a8,8,0,0,1,2.7-2.41,10.29,10.29,0,0,1,1.21-.54A7.8,7.8,0,0,1,10.34.88c.47-.05.12,0,.33-.16A11.05,11.05,0,0,1,14,.8a7.93,7.93,0,0,1,3.51,1.6c.45.33.72.69.92.82-.11.09-.1,0-.54-.25-.15-.08-.31-.19-.49-.28s-.85-.55-.93-.47.83.54,1,.64l1.17.72c-.51.31-2.2.6-2.54.9.07,0,0,0,.11,0l2.41-.75c-.19.51-1.14,1.77-1.23,2.17.23-.1.1,0,.38-.49l.65-1.08c.16-.27.19-.4.41-.56a11.3,11.3,0,0,0,.63,2.12c.09-.18-.13-.73-.19-.94S19,4.28,19,4A7.77,7.77,0,0,1,20.56,8.8c-.34-.24-.56-1.05-.93-1.21.13.44.67,1,.83,1.37a9.59,9.59,0,0,0-1.56-.28,4.74,4.74,0,0,0,1.56.4l-.18.18a7.82,7.82,0,0,0-1.15.91c.34-.05,1-.74,1.37-.89,0,.25-.11.51-.17.75Z"/><path class="cls-1" d="M20.48,9.82c.06.1,0-.09.06.13v1.26c0,1.74-.07,8.83,0,9.85-6.07,0-12.35.05-18.4,0V9.58c-.08.13-.06.15-.06.36v.37c0,1.58-.06,10.35,0,10.79.41.08,8.58,0,9.22,0s8.28.07,9,0c0,0,.19,0,.22-.14l0-.22c0-.12,0-.25,0-.37V18.24c0-2.6.09-6.32,0-8.68Z"/><path class="cls-1" d="M1.92,9.58V23.8c.5.1,7.19,0,8.29,0H18.5c.64,0,1.44,0,2.06,0,.23,0,.22,0,.23-.23V22c0-1.12-.05-11.92,0-12.49-.09-.05,0-.1-.08,0v14.3H2v-14C2,9.59,2,9.65,1.92,9.58Z"/><path class="cls-1" d="M6.6,21.83l.64.58c-.35.11-.37.22-.58.47L6.58,23A.78.78,0,0,0,6,22.41c.26-.32.4-.11.57-.58Zm-1.17.52c.92.38.77.21,1.21,1.09.46-1,.26-.65,1.21-1.09-1.11-.36-.78-.24-1.14-.79l-.11-.14C6.4,22.12,6.12,22.09,5.43,22.35Z"/><path class="cls-1" d="M15.79,21.83s0,0,0,0l.07.06,0,0,.51.46c-.43.14-.41.31-.67.55a.77.77,0,0,0-.55-.55c.17-.21.18-.13.35-.26a.49.49,0,0,0,.22-.32Zm-1.17.53c.88.29.84.31,1.22,1.08.45-1,.24-.64,1.21-1.09-1.2-.39-.76-.25-1.17-.83l-.08-.1C15.59,22.12,15.31,22.09,14.62,22.36Z"/><path class="cls-1" d="M3.58,21.92l.5.45s0,0,0,0a.67.67,0,0,0-.38.23,1,1,0,0,0-.13.18c-.12.14,0,.05-.15.14a.8.8,0,0,0-.56-.55l.2-.17c.21-.14.25-.09.37-.41a.48.48,0,0,1,.11.09Zm0-.5a.29.29,0,0,0-.08.1c-.44.65,0,.4-1.16.84.88.29.84.31,1.22,1.08.36-.81.31-.8,1.21-1.08C4,22,3.86,22.24,3.54,21.42Z"/><path class="cls-1" d="M12.21,22.29c.23-.18.31-.07.46-.46l.11.09.53.49c-.49.16-.34.31-.66.55a.78.78,0,0,0-.55-.55l.11-.12Zm-.71.07c.9.34.79.24,1.21,1.08.44-1,.29-.67,1.21-1.09-.8-.26-.89-.19-1.18-.93-.21.21-.19.44-.46.63A3.85,3.85,0,0,1,11.5,22.36Z"/><path class="cls-1" d="M9.72,21.83l.65.58c-.4.13-.37.24-.51.41L9.7,23a.77.77,0,0,0-.55-.55c.17-.21.18-.13.35-.26a.49.49,0,0,0,.22-.32Zm-1.17.53c.88.29.84.31,1.22,1.08.36-.81.31-.8,1.21-1.08-.78-.33-.87-.12-1.19-.94,0,0,0,0,0,0a0,0,0,0,1,0,0c-.18.26-.15.4-.39.57A3.71,3.71,0,0,1,8.55,22.36Z"/><path class="cls-1" d="M18.32,22.38a1.26,1.26,0,0,0,.61-.46c.25.23.18.31.6.47-.21.21-.45.34-.57.61-.31-.22.07-.05-.58-.55l-.06-.07Zm.61-.88c-.22.27-.13.38-.46.61s-.54.18-.75.33a1.67,1.67,0,0,1,.81.34,7.18,7.18,0,0,1,.4.68c.17-.22.2-.55.41-.72a6.26,6.26,0,0,1,.8-.35C19.08,22.16,19.3,22,18.93,21.5Z"/><path class="cls-1" d="M8.23,23.35V21.3h2.88v2.29H8.23v-.24Zm0,.3,3,0,0-2.38-3,0Z"/><path class="cls-1" d="M11.35,21.3h2.71v2.29H11.35V21.3Zm0,2.35,2.8,0,0-2.38-2.8,0Z"/><path class="cls-1" d="M2.14,23.6a18.82,18.82,0,0,0,2.72,0c.12,0,.06,0,.13-.05H2.14l0-2.24V21.3H5c-.13-.07.14,0-.18-.06H4.26c-.48,0-1.83,0-2.13,0a6.51,6.51,0,0,0,0,1.17Z"/><path class="cls-1" d="M17.24,23.59H14.3V21.3h2.94c-.12-.07.14,0-.17-.06l-2.83,0,0,2.35a11,11,0,0,0,1.53,0h1.32C17.24,23.62,17.18,23.63,17.24,23.59Z"/><path class="cls-1" d="M5.16,23.59c.11.07-.12,0,.18.06l2.71,0,0-2.35-2.86,0H8v2.29Z"/><path class="cls-2" d="M20.56,23.6H17.42c.11.07-.12,0,.18.06l2.92,0s0,0,0,0l0-2.33-3.16,0h3.13Z"/></svg>