<svg id="Layer_1" data-name="Layer 1" xmlns="http://www.w3.org/2000/svg" viewBox="0 0 20 20"><defs><style>.cls-1{fill:#341e00;}.cls-1,.cls-2{fill-rule:evenodd;}.cls-2{fill:#8e816f;}</style></defs><path class="cls-1" d="M11.26,5.55c.82.44,1-.87.31-1.24a7.69,7.69,0,0,0-1.83-.08c.07-.15,0,0,.09-.15L9.93,4c.47-.59-.46-.92-.49-.36,0,0,1-.36,0,.62-.69,0-1.54-.12-1.74.48a1,1,0,0,0,.15.85c.28.28.57,0,.81,0,.32,2,.14,1.35-.4,3.29A12.43,12.43,0,0,0,7.85,11a2.81,2.81,0,0,0,1.84.57c0,.24,0,.47,0,.71,0,.53-.15.26-.15.49,0,1.12.14.26.15.92v1.72c-.75,0-1.14-.09-1.55.44-.11.13-.46.79.16.79h3.58c.69,0,.17-.87,0-1a2.61,2.61,0,0,0-1.48-.22V13.47c.1-.24-.15.18,0-.06s.12-.19.12-.8c-.12,0-.17,0-.17-.12,0-1.36-.15-.78.9-1.14a6.5,6.5,0,0,0,.79-.38,11,11,0,0,0-.39-2.31C11.18,6.82,11,7.32,11.26,5.55Z"/><path class="cls-1" d="M14.28,17.59v1.86s0,0-.1.05H13.1a8.6,8.6,0,0,1-1.25,0l0-1.92,2.3,0c.26,0,0,0,.15.05Zm-4.86,0,2.29,0,0,1.94-2.28,0,0-1.94Zm-2.55,0,2.43,0,0,1.94-2.43,0,0-1.94Zm-2.45,0,2.33,0,0,1.92-2.21,0c-.25,0-.06,0-.15-.05V17.59Zm10,1.87c.09.05-.1,0,.15.05l2.38,0h0V17.56l-2.58,0v1.87ZM4.28,17.59c-.1-.06.11,0-.15-.05H3.69c-.4,0-1.5,0-1.75,0a6.13,6.13,0,0,0,0,1l0,.95a16.14,16.14,0,0,0,2.21,0c.1,0,.06,0,.11-.05V17.59ZM1.78,8c0,.05,0,0,0,.1V19.6h15.3V7.93c.08-.08,0,0,.07,0,.25.28.32.65.57.74a10,10,0,0,0-.59-1,4.31,4.31,0,0,0,1.25.21,4.36,4.36,0,0,0-1.22-.3c.21-.23,1-.64,1-.82-.21,0-.52.31-.78.5a1,1,0,0,1-.3.17,7.44,7.44,0,0,0,.21-1.22,1.8,1.8,0,0,0-.21.69A13.12,13.12,0,0,0,16.7,5a6.27,6.27,0,0,0-.85-1.55c.08-.1.43.2.78.4a4.47,4.47,0,0,0,.8.43c-.06-.15,0-.06-.18-.18l-1.54-.9c.32-.23,1.69-.47,2-.71a16,16,0,0,0-2,.59c.09-.31.91-1.42,1-1.8-.24.08-.44.59-.57.81a4.93,4.93,0,0,1-.56.88A13.56,13.56,0,0,1,15,1c-.07.07-.16-.15,0,.45l.38,1.38a7.57,7.57,0,0,0-2.57-1.74A9.54,9.54,0,0,0,8.93.6.33.33,0,0,1,8.87.48s0-.08,0-.13A7.11,7.11,0,0,0,4.61,1.7,7.18,7.18,0,0,0,2.14,4.81,7.54,7.54,0,0,0,1.58,8Zm15.14.19L17,8c.1,1.93,0,5,0,7.08v2.06l0,.19c0,.13-.18.11-.18.11-.61.05-6.73,0-7.36,0s-7.19,0-7.53,0c-.07-.35,0-7.51,0-8.8v-.3c0-.17,0-.19.05-.29h.2A6.7,6.7,0,0,1,3.43,3.71a6.53,6.53,0,0,1,2.21-2,8,8,0,0,1,1-.44,6.24,6.24,0,0,1,2-.37C9,.89,8.75.9,8.91.8a9,9,0,0,1,2.68.06,6.34,6.34,0,0,1,2.86,1.31c.37.27.6.56.75.67-.08.07-.08,0-.43-.2l-.4-.24c-.17-.09-.7-.44-.76-.38s.67.44.81.52l.95.59c-.41.25-1.79.49-2.07.73.06,0,0,0,.09,0l2-.61c-.15.41-.93,1.44-1,1.77.18-.09.08,0,.31-.4l.53-.88a1.27,1.27,0,0,1,.33-.46A10.16,10.16,0,0,0,16,5c.08-.15-.1-.59-.15-.77s-.16-.56-.22-.83a6.44,6.44,0,0,1,1.32,4c-.28-.2-.46-.86-.76-1,.1.36.55.78.67,1.12a7.64,7.64,0,0,0-1.27-.23,4,4,0,0,0,1.27.33l-.14.14a8.56,8.56,0,0,0-1,.74c.29,0,.81-.59,1.13-.72,0,.2-.09.42-.14.61Z"/><path class="cls-1" d="M16.92,8.22c0,.08,0-.07,0,.11v1c0,1.43-.06,7.21,0,8-5,0-10.08,0-15,0V8c-.07.1-.05.12-.05.29v.3c0,1.29,0,8.45,0,8.8.34.07,7,0,7.53,0s6.75.05,7.36,0c0,0,.15,0,.18-.11l0-.19V15.09C17,13,17.1,9.94,17,8Z"/><path class="cls-1" d="M1.78,8V19.62c.4.09,5.86,0,6.76,0h6.77c.52,0,1.17,0,1.67,0,.19,0,.18,0,.2-.19V18.13c0-.91,0-9.73,0-10.19-.08-.05,0-.09-.07,0V19.6H1.83V8.13C1.8,8,1.81,8.08,1.78,8Z"/><path class="cls-1" d="M5.59,18l.53.47c-.29.1-.3.19-.48.38l-.06.07a.64.64,0,0,0-.45-.45c.21-.26.32-.09.46-.47Zm-1,.43c.75.3.63.17,1,.89.37-.84.21-.53,1-.9-.91-.29-.64-.19-.93-.64l-.09-.12C5.43,18.26,5.2,18.23,4.64,18.45Z"/><path class="cls-1" d="M13.09,18l0,0,0,.05,0,0,.41.37c-.35.12-.33.26-.54.45a.64.64,0,0,0-.45-.45c.14-.17.14-.11.28-.21a.4.4,0,0,0,.18-.26Zm-.95.43c.71.24.68.26,1,.89.37-.84.2-.53,1-.9-1-.31-.62-.2-.95-.67a.35.35,0,0,0-.07-.09C12.93,18.26,12.7,18.24,12.14,18.45Z"/><path class="cls-1" d="M3.13,18.09l.4.37s0,0,0,0a.57.57,0,0,0-.31.19c-.06.07-.06.09-.11.14s0,.05-.12.12a.64.64,0,0,0-.45-.45l.16-.14c.17-.11.21-.07.3-.33l.09.07Zm0-.41L3,17.77c-.36.53,0,.32-.94.68.72.24.68.26,1,.89.29-.66.25-.66,1-.89C3.43,18.19,3.36,18.35,3.1,17.68Z"/><path class="cls-1" d="M10.17,18.4c.19-.15.26-.06.37-.38l.09.07.44.4c-.4.13-.28.26-.54.45a.64.64,0,0,0-.45-.45l.09-.09Zm-.58.05c.74.28.65.2,1,.89.36-.81.24-.55,1-.9-.66-.21-.73-.15-1-.76-.17.17-.15.37-.37.52A3,3,0,0,1,9.59,18.45Z"/><path class="cls-1" d="M8.14,18l.53.47c-.32.11-.3.2-.42.33l-.12.12a.64.64,0,0,0-.45-.45c.13-.16.14-.11.28-.21A.4.4,0,0,0,8.14,18Zm-1,.43c.72.24.68.26,1,.89.29-.66.25-.66,1-.89-.64-.26-.71-.1-1-.77l0,0s0,0,0,0c-.15.21-.13.33-.32.46A3,3,0,0,1,7.19,18.45Z"/><path class="cls-1" d="M15.15,18.47a1,1,0,0,0,.5-.38c.21.19.15.25.49.39-.17.17-.36.27-.46.5-.25-.18.06-.05-.47-.46l-.06-.05Zm.5-.71c-.18.21-.11.3-.37.49s-.44.15-.62.27a1.29,1.29,0,0,1,.67.28c.16.17.18.35.32.55.14-.18.17-.45.34-.59s.46-.16.65-.28C15.78,18.29,16,18.18,15.65,17.76Z"/><path class="cls-1" d="M6.92,19.26V17.59H9.28v1.87H6.92v-.19Zm0,.24,2.43,0,0-1.94-2.43,0Z"/><path class="cls-1" d="M9.47,17.59h2.21v1.86H9.47V17.59Zm0,1.91,2.28,0,0-1.94-2.29,0Z"/><path class="cls-1" d="M2,19.47a16.14,16.14,0,0,0,2.21,0c.1,0,.06,0,.11-.05L2,19.47V17.59H4.28c-.1-.06.11,0-.15-.05H3.69c-.4,0-1.5,0-1.75,0a6.13,6.13,0,0,0,0,1Z"/><path class="cls-1" d="M14.28,19.45H11.87V17.59h2.41c-.1-.06.11,0-.15-.05l-2.3,0,0,1.92a8.6,8.6,0,0,0,1.25,0h1.08C14.28,19.48,14.23,19.49,14.28,19.45Z"/><path class="cls-1" d="M4.42,19.46c.09.05-.1,0,.15.05l2.21,0,0-1.92-2.33,0H6.73v1.86Z"/><path class="cls-2" d="M17,19.47H14.42c.09.05-.1,0,.15.05l2.38,0h0V17.56l-2.58,0H17Z"/></svg>