<?xml version="1.0" encoding="utf-8"?>
<!-- Generator: Adobe Illustrator 24.3.0, SVG Export Plug-In . SVG Version: 6.00 Build 0)  -->
<svg version="1.1" id="Layer_1" xmlns="http://www.w3.org/2000/svg" xmlns:xlink="http://www.w3.org/1999/xlink" x="0px" y="0px"
	 viewBox="0 0 250 150" enable-background="new 0 0 250 150" xml:space="preserve">
<g>
	<path fill-rule="evenodd" clip-rule="evenodd" fill="#341E00" d="M57.393,49.181c4.784,2.545,5.769-5.024,1.825-7.208
		c-1.5-0.831-8.363-0.453-10.629-0.451c0.404-0.903-0.002-0.159,0.524-0.895c0.191-0.267,0.363-0.404,0.541-0.627
		c2.735-3.419-2.62-5.305-2.838-2.093c0.262,0.036,5.569-2.077,0.142,3.613c-4.018,0-8.959-0.698-10.113,2.761
		c-0.537,1.609,0.01,4.111,0.882,4.973c1.617,1.598,3.332,0.225,4.716-0.306c1.851,11.384,0.801,7.852-2.315,19.1
		c-0.648,2.341-2.695,10.4-2.506,12.59c1.835,2.383,7.049,3.11,10.687,3.323c-0.001,1.365,0.014,2.726,0.021,4.088
		c0.016,3.084-0.874,1.537-0.874,2.831c-0.002,6.504,0.825,1.502,0.88,5.384l-0.026,9.982c-4.399,0.001-6.637-0.544-9.022,2.507
		c-0.626,0.801-2.686,4.602,0.911,4.6l20.769,0c4.035,0,1.004-5.026-0.11-5.849c-2.109-1.558-5.506-1.258-8.569-1.258L52.29,95.149
		c0.592-1.395-0.854,1.03,0.304-0.371c1.14-1.379,0.69-1.085,0.692-4.607c-0.723-0.047-0.995,0.052-0.995-0.712
		c0-7.875-0.861-4.544,5.205-6.602c1.983-0.673,3.048-1.55,4.592-2.238c-0.106-4.062-1.212-9.644-2.23-13.371
		C56.939,56.567,55.81,59.458,57.393,49.181z"/>
	<path fill-rule="evenodd" clip-rule="evenodd" fill="#341E00" d="M74.916,119.042l-0.001,10.819
		c-0.297,0.191-0.01,0.174-0.592,0.271l-6.241,0.018c-1.897-0.001-5.599,0.215-7.265-0.137l-0.128-11.122l13.38-0.151
		C75.568,118.919,74.349,118.68,74.916,119.042L74.916,119.042z M46.747,118.895l13.241-0.133l0.125,11.252l-13.239,0.128
		L46.747,118.895L46.747,118.895z M31.951,118.892l14.095-0.13l0.126,11.25l-14.091,0.132L31.951,118.892L31.951,118.892z
		 M17.718,119.041l13.533-0.146l0.127,11.119l-12.813,0.149c-1.436-0.167-0.337,0.024-0.847-0.297L17.718,119.041L17.718,119.041z
		 M75.758,129.866c0.518,0.326-0.596,0.128,0.847,0.297l13.836-0.142c0.037-0.079,0.132-0.054,0.197-0.082l0.073-11.044
		l-14.954,0.146L75.758,129.866L75.758,129.866z M16.878,119.042c-0.573-0.363,0.66-0.121-0.848-0.3
		c-0.074-0.009-0.734,0.001-0.856,0.002c-0.572,0.002-1.144,0.01-1.717,0.011c-2.278,0.001-8.672-0.169-10.111,0.138
		c-0.339,1.601-0.14,3.866-0.14,5.561l0.216,5.482c0.812,0.351,11.605,0.402,12.861,0.196c0.576-0.094,0.3-0.082,0.593-0.267
		L16.878,119.042L16.878,119.042z M2.368,63.561c0.191,0.303,0.156,0.02,0.257,0.605l0.029,66.536l88.82,0.003l-0.071-67.706
		c0.451-0.47-0.046-0.222,0.382,0.03c1.464,1.635,1.87,3.762,3.306,4.286c-0.646-1.844-2.623-4.272-3.418-5.709
		c0.751,0.184,6.27,1.72,7.276,1.22c-1.25-0.926-5.213-1.403-7.059-1.759c1.194-1.35,5.54-3.717,5.94-4.768
		c-1.219-0.039-2.999,1.805-4.506,2.908c-0.643,0.471-0.936,0.692-1.772,1.005c0.149-1.872,1.678-5.91,1.263-7.077
		c-0.621,0.678-1.117,2.866-1.23,4.004c-1.05-4.369-1.022-7.066-2.619-11.324c-0.958-2.553-3.5-7.576-4.919-8.984
		c0.437-0.616,2.479,1.151,4.506,2.288c1.588,0.891,3.094,2.061,4.668,2.539c-0.38-0.914,0.049-0.364-1.052-1.047l-8.975-5.24
		c1.866-1.357,9.839-2.734,11.488-4.127c-0.766-0.458-9.805,2.944-11.792,3.415c0.49-1.793,5.246-8.222,5.957-10.454
		c-1.368,0.5-2.538,3.454-3.315,4.746c-0.853,1.417-2.22,4.139-3.224,5.105c-0.947-1.536-2.798-9.21-3.313-11.45
		c-0.422,0.409-0.936-0.876,0.114,2.629l2.176,8.005c-2.777-3.58-10.085-8.228-14.872-10.108
		c-7.649-3.002-13.816-2.666-22.513-2.664c-0.279-0.37-0.144-0.135-0.361-0.702c-0.104-0.272-0.087-0.445-0.208-0.79
		c-8.409-0.762-17.875,3.462-24.497,7.861C12.696,30.913,7.226,38.084,4.465,44.902c-2.574,6.359-3.226,11.147-3.239,18.663
		L2.368,63.561L2.368,63.561z M90.247,64.695l0.454-1.251c0.592,11.196,0.152,28.8,0.152,41.094v10.242
		c0.001,0.564,0.026,1.171,0.016,1.726l-0.089,1.063c-0.161,0.792-1.046,0.637-1.06,0.638c-3.511,0.297-39.041-0.006-42.691-0.004
		c-3.043,0.002-41.72,0.272-43.685-0.138c-0.435-2.062-0.128-43.587-0.136-51.081c-0.001-0.573-0.014-1.151-0.014-1.722
		c0-1.01-0.087-1.084,0.297-1.7l1.143,0.003C4.628,52.761,6.84,45.388,11.977,38.48c3.475-4.673,7.575-8.664,12.781-11.4
		c1.727-0.907,3.722-1.841,5.71-2.548c5.384-1.915,6.99-1.699,11.744-2.174c2.232-0.223,0.6-0.19,1.566-0.76
		c1.818-1.074,13.007-0.086,15.534,0.378c7.03,1.291,11.488,3.836,16.608,7.571c2.16,1.576,3.447,3.249,4.365,3.893
		c-0.509,0.403-0.481,0.002-2.523-1.176c-0.724-0.418-1.494-0.896-2.345-1.355c-0.971-0.523-4.037-2.584-4.381-2.227
		c-0.37,0.384,3.902,2.583,4.712,3.039l5.522,3.396C78.875,36.6,70.862,37.99,69.26,39.385c0.354,0.197-0.104,0.133,0.503,0.121
		l11.446-3.574c-0.906,2.401-5.41,8.383-5.828,10.277c1.058-0.488,0.48-0.111,1.783-2.293l3.102-5.147
		c0.758-1.27,0.904-1.877,1.939-2.659c0.363,1.749,2.135,9.109,2.949,10.064c0.464-0.866-0.605-3.441-0.886-4.479
		c-0.436-1.606-0.951-3.239-1.288-4.82c3.795,4.317,8.337,14.992,7.655,22.964c-1.633-1.141-2.674-4.966-4.408-5.742
		c0.61,2.104,3.179,4.565,3.929,6.507c-1.391-0.168-6.59-1.664-7.417-1.303c0.798,0.867,5.765,1.653,7.415,1.865l-0.863,0.864
		c-1.173,0.931-5.022,3.426-5.466,4.291c1.655-0.224,4.689-3.469,6.508-4.198c-0.188,1.184-0.515,2.421-0.792,3.548L90.247,64.695z"
		/>
	<path fill-rule="evenodd" clip-rule="evenodd" fill="#341E00" d="M90.247,64.695c0.28,0.435,0.042-0.423,0.272,0.609l0.043,5.947
		c-0.001,8.267-0.338,41.832,0.07,46.665c-28.762-0.001-58.499,0.232-87.138-0.005L3.49,63.561c-0.384,0.616-0.297,0.69-0.297,1.7
		c0,0.571,0.014,1.148,0.014,1.722c0.007,7.494-0.3,49.019,0.136,51.081c1.965,0.41,40.642,0.14,43.685,0.138
		c3.65-0.002,39.18,0.301,42.691,0.004c0.013-0.001,0.899,0.154,1.06-0.638l0.089-1.063c0.01-0.555-0.015-1.162-0.016-1.726v-10.242
		c0-12.294,0.44-29.898-0.152-41.094L90.247,64.695z"/>
	<path fill-rule="evenodd" clip-rule="evenodd" fill="#341E00" d="M2.368,63.561l0.001,67.286c2.346,0.496,34.02,0.145,39.254,0.145
		c13.087,0,26.175,0,39.262,0c3.025,0,6.789,0.207,9.714,0.031c1.092-0.066,1.058-0.032,1.123-1.123l-0.03-7.723
		c0-5.306-0.219-56.453,0.092-59.148c-0.427-0.252,0.07-0.5-0.382-0.03l0.071,67.706l-88.82-0.003L2.625,64.166
		C2.524,63.581,2.56,63.864,2.368,63.561z"/>
	<path fill-rule="evenodd" clip-rule="evenodd" fill="#341E00" d="M24.51,121.532l3.05,2.746c-1.669,0.548-1.739,1.061-2.772,2.218
		l-0.364,0.378c-0.516-1.383-1.166-2.126-2.612-2.596C23.052,122.763,23.692,123.745,24.51,121.532L24.51,121.532z M18.974,124.014
		c4.35,1.78,3.666,0.992,5.755,5.166c2.138-4.832,1.192-3.079,5.723-5.184c-5.268-1.692-3.71-1.118-5.393-3.743l-0.518-0.667
		C23.564,122.925,22.253,122.771,18.974,124.014z"/>
	<path fill-rule="evenodd" clip-rule="evenodd" fill="#341E00" d="M68.042,121.533c0.061,0.046,0.151,0.044,0.179,0.144l0.339,0.29
		c0.041,0.038,0.109,0.104,0.153,0.147l2.378,2.166c-2.034,0.663-1.914,1.471-3.137,2.595c-0.516-1.38-1.164-2.127-2.613-2.596
		c0.795-0.973,0.826-0.628,1.653-1.213C67.694,122.569,67.75,122.32,68.042,121.533L68.042,121.533z M62.502,124.041
		c4.134,1.373,3.969,1.485,5.754,5.139c2.164-4.856,1.171-3.062,5.725-5.186c-5.657-1.819-3.588-1.172-5.509-3.916
		c-0.192-0.274-0.244-0.32-0.404-0.493C67.101,122.906,65.742,122.796,62.502,124.041z"/>
	<path fill-rule="evenodd" clip-rule="evenodd" fill="#341E00" d="M10.236,121.968l2.336,2.13c0.036-0.058,0.132,0.118,0.192,0.182
		c-0.841,0.276-1.296,0.496-1.809,1.086c-0.349,0.401-0.317,0.508-0.596,0.841c-0.568,0.676-0.203,0.281-0.727,0.668
		c-0.518-1.377-1.166-2.126-2.614-2.595l0.926-0.802c0.992-0.647,1.207-0.42,1.774-1.944
		C10.044,121.781,9.934,121.687,10.236,121.968L10.236,121.968z M10.038,119.585c-0.189,0.193-0.182,0.168-0.394,0.479
		c-2.092,3.075,0.098,1.88-5.466,3.974c4.168,1.389,3.942,1.479,5.754,5.139c1.705-3.833,1.455-3.79,5.723-5.12
		C11.953,122.497,11.541,123.468,10.038,119.585z"/>
	<path fill-rule="evenodd" clip-rule="evenodd" fill="#341E00" d="M51.094,123.733c1.067-0.85,1.461-0.35,2.156-2.2
		c0.326,0.249,0.214,0.153,0.517,0.434l2.529,2.311c-2.336,0.765-1.614,1.482-3.137,2.597c-0.512-1.381-1.165-2.127-2.611-2.598
		L51.094,123.733L51.094,123.733z M47.708,124.041c4.291,1.625,3.774,1.126,5.755,5.139c2.089-4.701,1.357-3.192,5.725-5.187
		c-3.812-1.209-4.244-0.888-5.619-4.405c-0.976,0.985-0.858,2.111-2.137,3.003C50.429,123.289,48.926,123.576,47.708,124.041z"/>
	<path fill-rule="evenodd" clip-rule="evenodd" fill="#341E00" d="M39.307,121.532l3.046,2.748c-1.857,0.61-1.744,1.155-2.405,1.927
		l-0.727,0.668c-0.518-1.377-1.166-2.126-2.614-2.595c0.792-0.969,0.827-0.628,1.65-1.214
		C38.941,122.579,39.02,122.304,39.307,121.532L39.307,121.532z M33.766,124.041c4.165,1.376,3.95,1.49,5.756,5.138
		c1.705-3.833,1.455-3.79,5.724-5.12c-3.703-1.562-4.116-0.591-5.618-4.473c-0.048,0.049-0.119,0.061-0.137,0.155
		c-0.019,0.094-0.109,0.123-0.133,0.159c-0.856,1.223-0.738,1.903-1.867,2.691C36.487,123.29,34.983,123.575,33.766,124.041z"/>
	<path fill-rule="evenodd" clip-rule="evenodd" fill="#341E00" d="M79.991,124.164c1.52-0.567,2.001-1.15,2.886-2.214
		c1.216,1.103,0.874,1.471,2.867,2.248c-1.005,0.993-2.112,1.589-2.722,2.889c-1.442-1.039,0.362-0.242-2.722-2.631L79.991,124.164
		L79.991,124.164z M82.877,120.002c-1.033,1.234-0.614,1.794-2.149,2.883c-1.194,0.847-2.565,0.841-3.573,1.529
		c1.545,0.327,2.987,0.76,3.838,1.641c0.934,0.967,1.077,2.039,1.884,3.222c0.806-1.062,0.975-2.623,1.968-3.425
		c1.083-0.875,2.652-0.974,3.772-1.645C83.623,123.105,84.628,122.438,82.877,120.002z"/>
	<path fill-rule="evenodd" clip-rule="evenodd" fill="#341E00" d="M32.228,128.721l0.002-1.138l-0.002-8.542h13.664l0.002,0.292
		l0.002,9.104l-0.001,1.43l-13.67-0.002L32.228,128.721L32.228,128.721z M32.082,130.144l14.091-0.132l-0.126-11.25l-14.095,0.13
		L32.082,130.144z"/>
	<path fill-rule="evenodd" clip-rule="evenodd" fill="#341E00" d="M47.024,119.041l12.523-0.001l0.287,0.003l0.003,10.531
		l-0.001,0.289l-12.812,0.002l-0.001-4.559l0.001-4.552V119.041L47.024,119.041z M46.874,130.143l13.239-0.128l-0.125-11.252
		l-13.241,0.133L46.874,130.143z"/>
	<path fill-rule="evenodd" clip-rule="evenodd" fill="#341E00" d="M3.422,129.935c0.812,0.351,11.605,0.402,12.861,0.196
		c0.576-0.094,0.3-0.082,0.593-0.267L3.422,129.935l0.069-10.603l-0.003-0.293l13.389,0.002c-0.573-0.363,0.66-0.121-0.848-0.3
		c-0.074-0.009-0.734,0.001-0.856,0.002c-0.572,0.002-1.144,0.01-1.717,0.011c-2.278,0.001-8.672-0.169-10.111,0.138
		c-0.339,1.601-0.14,3.866-0.14,5.561L3.422,129.935z"/>
	<path fill-rule="evenodd" clip-rule="evenodd" fill="#341E00" d="M74.915,129.861l-13.951,0.002l0.001-10.823l13.951,0.002
		c-0.568-0.362,0.651-0.123-0.847-0.301l-13.38,0.151l0.128,11.122c1.667,0.352,5.369,0.136,7.265,0.137l6.241-0.018
		C74.905,130.035,74.618,130.052,74.915,129.861z"/>
	<path fill-rule="evenodd" clip-rule="evenodd" fill="#341E00" d="M17.718,129.866c0.51,0.321-0.589,0.13,0.847,0.297l12.813-0.149
		l-0.127-11.119l-13.533,0.146l13.383-0.001L31.1,129.863L17.718,129.866z"/>
	<path fill-rule="evenodd" clip-rule="evenodd" fill="#8E816F" d="M90.638,129.939l-14.88-0.073
		c0.518,0.326-0.596,0.128,0.847,0.297l13.836-0.142C90.477,129.942,90.572,129.967,90.638,129.939l0.073-11.044l-14.954,0.146
		h14.802L90.638,129.939z"/>
	<path fill-rule="evenodd" clip-rule="evenodd" fill="#341E00" stroke="#000000" stroke-width="0.7819" stroke-miterlimit="10" d="
		M223.119,70.323c-0.002-2-0.001-4.001-0.001-6.001c0-0.955,0.073-2.245-0.006-3.159c-0.125-1.435,0.119-1.139-0.387-2.285
		c2.06-0.002,3.868-0.113,5.884-0.004c1.953,0.106,2.637,1.376,3.107,3.043c0.655,2.323,0.822,8.5-3.368,8.511L223.119,70.323
		L223.119,70.323z M230.355,70.492c2.311-0.78,3.339-1.553,4.175-3.617c0.912-2.251,0.13-4.725-0.931-6.121
		c-1.192-1.569-3.046-1.929-5.734-1.9c-1.788,0.026-6.261-0.265-7.649-0.016l0.093,23.437c4.1,0.266,2.814,0.111,2.807-11.726
		c4.632-0.003,7.482-1.097,8.619,3.193c1.022,3.858-1.315,8.453,3.261,8.565C235.002,75.096,235.916,72.926,230.355,70.492z"/>
	<path fill-rule="evenodd" clip-rule="evenodd" fill="#341E00" stroke="#341E00" stroke-width="0.7819" stroke-miterlimit="10" d="
		M137.096,61.179c0-0.649-0.028-0.704-0.329-1.242l-0.669-1.056c2.092,0,4.362-0.086,6.43-0.01
		c4.868,0.178,4.912,11.558-0.262,11.558h-5.17L137.096,61.179L137.096,61.179z M144.38,70.61c0.961-0.694,1.587-0.561,2.608-1.563
		c2.464-2.419,2.556-5.603,0.62-8.124c-1.325-1.725-2.701-2.114-5.582-2.071c-2.629,0.039-5.22-0.118-7.799-0.12l0,23.593
		l2.869-0.142l0.001-11.636c4.457-0.007,7.553-1.058,8.681,3.328c0.952,3.704-1.347,8.654,3.229,8.386
		C149.001,77.852,149.92,71.767,144.38,70.61z"/>
	<path fill-rule="evenodd" clip-rule="evenodd" fill="#341E00" stroke="#341E00" stroke-width="1.0425" stroke-miterlimit="10" d="
		M119.65,82.055l0.037-11.508c4.254-0.006,7.346-1.014,8.568,2.949c0.878,2.846,0.339,7.881-2.12,8.487L119.65,82.055L119.65,82.055
		z M126.467,82.189c6.294-0.665,7.018-10.069,0.502-11.593c1.357-0.918,2.222-0.903,3.353-2.259
		c2.488-2.982,1.267-9.176-4.356-9.559c-0.88-0.265-5.315-0.078-6.914-0.09c-0.647-0.005-1.607-0.16-2.131,0.117
		c-0.271,0.458-0.214,0.243-0.214,1.393c0.001,3.979-0.232,21.068,0.171,22C117.501,82.633,125.692,82.718,126.467,82.189
		L126.467,82.189z M125.992,59.089l-7.09,0.047c0.414-0.077,0.336-0.17,0.273,0.237c0.351-0.02,0.256-0.092,0.213,0.28
		c0.667,2.669,0.297,7.632,0.298,10.776c4.506,0,7.325,1.091,8.585-2.925c0.479-1.527,0.525-3.418,0.16-5.061
		c-0.193-0.869-0.706-2.298-1.422-2.938C126.24,58.817,126.715,59.149,125.992,59.089z"/>
	<path fill-rule="evenodd" clip-rule="evenodd" fill="#341E00" stroke="#000000" stroke-width="0.7819" stroke-miterlimit="10" d="
		M161.654,82.199c-2.263-1.034-3.472-1.01-4.925-2.832c-3.958-4.963-3.958-12.235-0.597-16.896
		c5.297-7.345,15.391-2.792,15.363,8.138c-0.013,5.208-2.247,9.356-6.878,11.228l-0.937,0.491c3.612-0.764,6.143-2.036,7.784-4.044
		c1.633-1.997,3.13-4.973,2.9-8.614c-0.914-14.457-23.098-14.375-23.558,0.467C150.613,76.426,155.706,82.102,161.654,82.199z"/>
	<path fill-rule="evenodd" clip-rule="evenodd" fill="#341E00" stroke="#000000" stroke-width="0.7819" stroke-miterlimit="10" d="
		M179.535,72.425c0.331,0.762,0.216,1.426,0.211,2.295c-0.004,0.806-0.001,1.612-0.001,2.418c0,1.692,0.002,3.384,0.002,5.076
		l2.704-0.024c0.035-1.397-0.355-9.217,0.283-9.74c0.268-2.113,5.013-11.358,5.656-13.644c-0.856,1.331-2.101,4.702-2.844,6.46
		c-0.853,2.017-1.934,4.855-2.882,6.552c-0.541-0.61-5.422-11.829-5.76-13.096l-3.182,0.086L179.535,72.425z"/>
	<path fill-rule="evenodd" clip-rule="evenodd" fill="#341E00" stroke="#000000" stroke-width="0.7819" stroke-miterlimit="10" d="
		M190.47,66.384c0.275-0.926,0.336-1.445,0.882-2.22c0.681,0.983,2.46,7.413,2.968,9.04c0.933,2.987,2.067,6.136,2.774,9.096
		l3.089-0.014l-7.38-23.418c-0.29,0.363-7.002,21.841-7.313,23.406L190.47,66.384z"/>
	<polygon fill-rule="evenodd" clip-rule="evenodd" fill="#341E00" points="158.224,100.592 164.814,100.591 164.813,106.592 
		166.535,106.636 166.535,93.581 164.814,93.641 164.816,99.205 158.224,99.202 158.224,93.581 156.504,93.582 156.504,106.636 
		158.224,106.637 	"/>
	<path fill-rule="evenodd" clip-rule="evenodd" fill="#341E00" d="M185.829,102.527c-1.332,5.317-8.794,3.09-6.624-4.899
		c0.865-3.187,3.767-3.168,5.251-2.226C186.061,96.42,186.429,100.128,185.829,102.527L185.829,102.527z M187.489,102.769
		c0.923-3.714-0.111-7.728-2.715-8.897c-7.837-3.521-10.133,9.971-4.494,12.472C183.892,107.945,186.749,105.746,187.489,102.769z"
		/>
	<path fill-rule="evenodd" clip-rule="evenodd" fill="#341E00" d="M136.795,102.86c-0.199,2.898,3.076,4.376,6.061,3.856
		c4.368-0.761,3.644-4.687,2.318-5.888c-1.59-1.44-6.412-1.435-6.299-4.096c0.064-1.529,1.496-2.052,3.121-1.896
		c1.74,0.168,2.073,1.012,2.566,2.49l1.464,0.001c0.468-2.859-3.029-4.49-5.945-3.757c-3.706,0.932-3.53,4.53-1.612,5.982
		c1.654,1.252,6.671,1.207,5.906,4.34c-0.308,1.262-1.938,1.693-3.492,1.466c-1.702-0.248-2.116-1.04-2.565-2.498L136.795,102.86z"
		/>
	<path fill-rule="evenodd" clip-rule="evenodd" fill="#341E00" d="M200.176,95l2.782,0.001c2.03,0.001,3.172,0.626,3.133,2.688
		c-0.037,1.976-1.49,2.424-3.375,2.423l-2.539-0.001L200.176,95L200.176,95z M200.178,101.499c3.985-0.005,8.643,0.095,7.541-4.946
		c-0.758-3.466-5.545-3.284-9.293-2.912l0.001,12.983l1.752-0.11V101.499z"/>
	<path fill-rule="evenodd" clip-rule="evenodd" fill="#341E00" d="M179.535,72.425c-0.08,1.961-0.029,3.956-0.029,5.922
		c0,4.628-0.385,4.062,1.694,4.062c1.674,0,1.524,0.197,1.518-1.387l0.015-8.571c-0.637,0.522-0.247,8.343-0.283,9.74l-2.704,0.024
		c0-1.692-0.002-3.384-0.002-5.076c0-0.806-0.003-1.612,0.001-2.418C179.75,73.851,179.866,73.186,179.535,72.425z"/>
	<path fill-rule="evenodd" clip-rule="evenodd" fill="#341E00" stroke="#000000" stroke-width="0.7819" stroke-miterlimit="10" d="
		M207.397,66.384c0.275-0.926,0.336-1.445,0.882-2.22c0.681,0.983,2.46,7.413,2.968,9.04c0.933,2.987,2.067,6.136,2.774,9.096
		l3.089-0.014l-7.38-23.418c-0.29,0.363-7.002,21.841-7.313,23.406L207.397,66.384z"/>
	
		<path fill-rule="evenodd" clip-rule="evenodd" fill="none" stroke="#000000" stroke-width="0.7154" stroke-miterlimit="22.9256" d="
		M241.972,47.885c3.756,0,6.801,3.047,6.801,6.807c0,3.759-3.045,6.807-6.801,6.807s-6.801-3.047-6.801-6.807
		C235.171,50.932,238.216,47.885,241.972,47.885z"/>
	<path fill-rule="evenodd" clip-rule="evenodd" d="M237.907,56.855 M239.333,56.855v-3.818h-1.426v-0.508h3.426v0.508h-1.426v3.818
		H239.333L239.333,56.855z M241.912,56.855 M241.912,56.855v-4.326h0.858l1.021,3.063c0.097,0.284,0.163,0.495,0.211,0.64
		c0.048-0.157,0.127-0.393,0.23-0.695l1.039-3.009h0.767v4.326h-0.55v-3.619l-1.263,3.619h-0.514l-1.25-3.686v3.686H241.912z"/>
</g>
</svg>
