<?xml version="1.0" encoding="utf-8"?>
<!-- Generator: Adobe Illustrator 24.3.0, SVG Export Plug-In . SVG Version: 6.00 Build 0)  -->
<svg version="1.1" id="Layer_1" xmlns="http://www.w3.org/2000/svg" xmlns:xlink="http://www.w3.org/1999/xlink" x="0px" y="0px"
	 viewBox="0 0 350 200" enable-background="new 0 0 350 200" xml:space="preserve">
<g>
	<path fill-rule="evenodd" clip-rule="evenodd" fill="#341E00" d="M79.152,64.302c6.615,3.518,7.976-6.946,2.523-9.966
		c-2.074-1.149-11.563-0.627-14.696-0.624c0.558-1.248-0.003-0.22,0.725-1.237c0.264-0.369,0.503-0.559,0.749-0.867
		c3.781-4.728-3.622-7.335-3.923-2.894c0.362,0.049,7.7-2.871,0.196,4.996c-5.555,0.001-12.387-0.964-13.982,3.818
		c-0.743,2.225,0.013,5.684,1.22,6.876c2.236,2.209,4.607,0.311,6.521-0.423c2.559,15.74,1.108,10.856-3.201,26.408
		c-0.897,3.237-3.727,14.379-3.465,17.407c2.538,3.295,9.746,4.3,14.776,4.594c-0.001,1.887,0.02,3.769,0.029,5.652
		c0.022,4.265-1.208,2.126-1.208,3.914c-0.003,8.993,1.141,2.076,1.217,7.444l-0.036,13.802c-6.082,0.002-9.177-0.752-12.474,3.466
		c-0.866,1.108-3.713,6.362,1.259,6.361l28.716-0.001c5.58,0,1.389-6.95-0.152-8.087c-2.916-2.154-7.613-1.739-11.848-1.739
		l-0.001-15.344c0.818-1.928-1.181,1.424,0.42-0.513c1.576-1.907,0.953-1.501,0.956-6.37c-0.999-0.065-1.376,0.072-1.376-0.985
		c0-10.888-1.19-6.282,7.197-9.128c2.742-0.931,4.214-2.144,6.349-3.095c-0.147-5.617-1.676-13.334-3.084-18.487
		C78.524,74.514,76.962,78.512,79.152,64.302z"/>
	<path fill-rule="evenodd" clip-rule="evenodd" fill="#341E00" d="M103.38,160.894l-0.001,14.959
		c-0.411,0.264-0.014,0.24-0.819,0.375l-8.629,0.025c-2.622-0.001-7.741,0.297-10.045-0.189l-0.176-15.377l18.5-0.209
		C104.28,160.723,102.594,160.394,103.38,160.894L103.38,160.894z M64.433,160.69l18.307-0.183l0.173,15.557l-18.305,0.178
		L64.433,160.69L64.433,160.69z M43.975,160.686l19.488-0.18l0.175,15.554l-19.483,0.183L43.975,160.686L43.975,160.686z
		 M24.296,160.892l18.712-0.202l0.176,15.374l-17.716,0.206c-1.986-0.231-0.467,0.033-1.172-0.411L24.296,160.892L24.296,160.892z
		 M104.543,175.859c0.716,0.451-0.824,0.177,1.171,0.411l19.13-0.197c0.051-0.109,0.182-0.075,0.273-0.114l0.101-15.269
		l-20.676,0.201L104.543,175.859L104.543,175.859z M23.134,160.893c-0.792-0.502,0.912-0.168-1.172-0.415
		c-0.102-0.012-1.016,0.002-1.184,0.002c-0.791,0.003-1.582,0.014-2.374,0.015c-3.15,0.001-11.99-0.234-13.979,0.191
		c-0.468,2.214-0.194,5.345-0.193,7.689l0.299,7.58c1.123,0.485,16.046,0.556,17.782,0.271c0.797-0.131,0.415-0.113,0.82-0.37
		L23.134,160.893L23.134,160.893z M3.073,84.185c0.265,0.419,0.215,0.027,0.355,0.836l0.04,91.994l122.805,0.004l-0.099-93.611
		c0.624-0.65-0.063-0.307,0.528,0.042c2.025,2.261,2.585,5.201,4.571,5.926c-0.893-2.549-3.626-5.906-4.726-7.894
		c1.039,0.254,8.669,2.378,10.06,1.686c-1.729-1.28-7.207-1.939-9.761-2.433c1.651-1.867,7.66-5.14,8.212-6.592
		c-1.685-0.054-4.147,2.495-6.23,4.021c-0.889,0.652-1.294,0.957-2.45,1.389c0.206-2.588,2.32-8.171,1.746-9.785
		c-0.859,0.938-1.544,3.963-1.701,5.536c-1.451-6.041-1.413-9.769-3.621-15.657c-1.324-3.53-4.839-10.474-6.801-12.421
		c0.604-0.852,3.427,1.592,6.23,3.164c2.196,1.232,4.278,2.85,6.455,3.511c-0.525-1.263,0.068-0.503-1.455-1.447l-12.409-7.245
		c2.58-1.876,13.604-3.78,15.884-5.706c-1.059-0.633-13.556,4.071-16.304,4.722c0.678-2.48,7.253-11.368,8.237-14.454
		c-1.891,0.692-3.509,4.776-4.584,6.563c-1.179,1.96-3.069,5.722-4.457,7.058c-1.309-2.124-3.869-12.734-4.581-15.831
		c-0.583,0.566-1.294-1.212,0.157,3.635l3.008,11.067c-3.839-4.95-13.943-11.377-20.562-13.975
		C81.047,24.136,72.52,24.6,60.494,24.603c-0.385-0.511-0.199-0.186-0.499-0.971c-0.144-0.377-0.121-0.615-0.288-1.092
		c-11.626-1.053-24.715,4.787-33.871,10.868C17.352,39.045,9.789,48.959,5.972,58.386c-3.559,8.792-4.461,15.412-4.478,25.803
		L3.073,84.185L3.073,84.185z M124.576,85.752l0.627-1.73c0.819,15.48,0.21,39.82,0.21,56.818V155
		c0.001,0.78,0.036,1.619,0.022,2.386l-0.123,1.469c-0.222,1.094-1.446,0.881-1.465,0.882c-4.855,0.41-53.979-0.009-59.026-0.006
		c-4.207,0.002-57.683,0.376-60.4-0.191c-0.602-2.851-0.178-60.265-0.188-70.626c-0.001-0.793-0.02-1.591-0.02-2.38
		c0-1.397-0.12-1.499,0.411-2.35l1.58,0.004c-0.007-14.937,3.051-25.13,10.154-34.682c4.804-6.461,10.473-11.978,17.672-15.762
		c2.387-1.254,5.146-2.546,7.894-3.523c7.443-2.647,9.664-2.35,16.238-3.006c3.086-0.308,0.829-0.262,2.165-1.051
		c2.514-1.485,17.984-0.118,21.478,0.523c9.72,1.785,15.883,5.304,22.963,10.468c2.987,2.18,4.766,4.492,6.035,5.383
		c-0.704,0.557-0.665,0.002-3.489-1.627c-1.001-0.578-2.066-1.238-3.243-1.873c-1.343-0.724-5.581-3.573-6.057-3.079
		c-0.511,0.53,5.396,3.572,6.516,4.202l7.635,4.695c-3.312,2.049-14.39,3.971-16.606,5.9c0.489,0.272-0.144,0.184,0.696,0.167
		l15.825-4.942c-1.253,3.32-7.48,11.591-8.058,14.209c1.463-0.674,0.663-0.153,2.465-3.171l4.289-7.116
		c1.048-1.756,1.249-2.595,2.681-3.677c0.503,2.418,2.953,12.595,4.077,13.915c0.641-1.197-0.837-4.758-1.226-6.192
		c-0.602-2.22-1.315-4.479-1.78-6.664c5.247,5.968,11.527,20.729,10.584,31.75c-2.258-1.578-3.697-6.867-6.095-7.939
		c0.844,2.909,4.395,6.311,5.433,8.997c-1.924-0.233-9.112-2.301-10.255-1.801c1.104,1.199,7.971,2.285,10.252,2.578l-1.193,1.194
		c-1.621,1.287-6.943,4.737-7.557,5.933c2.288-0.31,6.484-4.796,8.998-5.805c-0.26,1.637-0.712,3.347-1.096,4.905L124.576,85.752z"
		/>
	<path fill-rule="evenodd" clip-rule="evenodd" fill="#341E00" d="M124.576,85.752c0.387,0.602,0.059-0.584,0.377,0.841l0.06,8.223
		c-0.001,11.43-0.467,57.838,0.096,64.52c-39.767-0.001-80.882,0.321-120.479-0.007L4.625,84.185
		c-0.531,0.852-0.41,0.953-0.411,2.35c0,0.789,0.019,1.588,0.02,2.38c0.01,10.361-0.414,67.775,0.188,70.626
		c2.717,0.567,56.192,0.193,60.4,0.191c5.047-0.003,54.171,0.416,59.026,0.006c0.019-0.001,1.243,0.213,1.465-0.882l0.123-1.469
		c0.014-0.768-0.02-1.607-0.022-2.386v-14.161c0-16.997,0.609-41.337-0.21-56.818L124.576,85.752z"/>
	<path fill-rule="evenodd" clip-rule="evenodd" fill="#341E00" d="M3.073,84.185l0.002,93.032c3.244,0.686,47.037,0.2,54.273,0.2
		c18.095,0,36.19,0,54.284,0c4.183,0,9.386,0.286,13.431,0.042c1.509-0.091,1.462-0.045,1.553-1.553l-0.042-10.678
		c0-7.336-0.303-78.054,0.127-81.779c-0.591-0.349,0.096-0.692-0.528-0.042l0.099,93.611L3.468,177.015l-0.04-91.994
		C3.288,84.212,3.338,84.604,3.073,84.185z"/>
	<path fill-rule="evenodd" clip-rule="evenodd" fill="#341E00" d="M33.687,164.337l4.216,3.797
		c-2.308,0.758-2.405,1.467-3.832,3.066l-0.504,0.523c-0.713-1.912-1.612-2.939-3.612-3.59
		C31.671,166.038,32.556,167.395,33.687,164.337L33.687,164.337z M26.032,167.767c6.014,2.46,5.068,1.371,7.957,7.142
		c2.956-6.681,1.648-4.258,7.913-7.167c-7.284-2.339-5.13-1.546-7.456-5.176l-0.716-0.922
		C32.379,166.262,30.565,166.049,26.032,167.767z"/>
	<path fill-rule="evenodd" clip-rule="evenodd" fill="#341E00" d="M93.876,164.338c0.085,0.064,0.209,0.06,0.247,0.2l0.469,0.4
		c0.056,0.053,0.151,0.143,0.211,0.203l3.288,2.994c-2.813,0.917-2.646,2.034-4.337,3.588c-0.713-1.908-1.609-2.941-3.613-3.59
		c1.1-1.346,1.142-0.868,2.285-1.678C93.394,165.77,93.471,165.426,93.876,164.338L93.876,164.338z M86.216,167.805
		c5.716,1.898,5.487,2.054,7.956,7.106c2.992-6.714,1.62-4.234,7.916-7.17c-7.821-2.515-4.961-1.621-7.617-5.414
		c-0.265-0.378-0.337-0.442-0.558-0.681C92.574,166.236,90.695,166.084,86.216,167.805z"/>
	<path fill-rule="evenodd" clip-rule="evenodd" fill="#341E00" d="M13.952,164.938l3.229,2.945c0.049-0.08,0.182,0.163,0.265,0.252
		c-1.163,0.382-1.792,0.685-2.501,1.501c-0.482,0.555-0.438,0.703-0.825,1.163c-0.786,0.934-0.28,0.389-1.004,0.923
		c-0.717-1.904-1.612-2.94-3.614-3.589l1.28-1.109c1.371-0.895,1.669-0.58,2.453-2.688
		C13.686,164.681,13.534,164.551,13.952,164.938L13.952,164.938z M13.678,161.645c-0.262,0.266-0.252,0.232-0.544,0.663
		c-2.892,4.252,0.136,2.599-7.557,5.495c5.763,1.92,5.451,2.045,7.956,7.106c2.357-5.3,2.012-5.24,7.913-7.079
		C16.325,165.671,15.755,167.013,13.678,161.645z"/>
	<path fill-rule="evenodd" clip-rule="evenodd" fill="#341E00" d="M70.442,167.379c1.475-1.175,2.02-0.484,2.981-3.041
		c0.451,0.344,0.296,0.212,0.714,0.6l3.497,3.196c-3.23,1.058-2.231,2.049-4.338,3.591c-0.707-1.91-1.611-2.941-3.611-3.591
		L70.442,167.379L70.442,167.379z M65.761,167.805c5.933,2.247,5.219,1.556,7.956,7.106c2.888-6.499,1.876-4.414,7.915-7.172
		c-5.27-1.672-5.867-1.228-7.77-6.091c-1.349,1.362-1.187,2.918-2.955,4.152C69.523,166.765,67.445,167.162,65.761,167.805z"/>
	<path fill-rule="evenodd" clip-rule="evenodd" fill="#341E00" d="M54.146,164.336l4.211,3.799
		c-2.568,0.844-2.411,1.596-3.326,2.664l-1.004,0.923c-0.716-1.904-1.612-2.94-3.614-3.589c1.095-1.34,1.143-0.869,2.282-1.679
		C53.639,165.783,53.748,165.404,54.146,164.336L54.146,164.336z M46.484,167.805c5.759,1.903,5.461,2.06,7.958,7.104
		c2.357-5.3,2.012-5.24,7.914-7.079c-5.12-2.159-5.691-0.817-7.768-6.185c-0.067,0.068-0.165,0.085-0.19,0.214
		c-0.026,0.13-0.151,0.171-0.184,0.219c-1.183,1.691-1.021,2.631-2.581,3.72C50.246,166.766,48.167,167.161,46.484,167.805z"/>
	<path fill-rule="evenodd" clip-rule="evenodd" fill="#341E00" d="M110.396,167.976c2.102-0.783,2.767-1.59,3.99-3.061
		c1.682,1.525,1.208,2.034,3.964,3.108c-1.39,1.373-2.921,2.197-3.763,3.995c-1.994-1.436,0.5-0.335-3.764-3.638L110.396,167.976
		L110.396,167.976z M114.386,162.221c-1.428,1.706-0.848,2.48-2.971,3.986c-1.651,1.171-3.546,1.162-4.941,2.114
		c2.136,0.452,4.13,1.05,5.306,2.269c1.291,1.338,1.489,2.82,2.605,4.454c1.115-1.468,1.348-3.627,2.721-4.735
		c1.497-1.21,3.666-1.346,5.216-2.274C115.418,166.511,116.807,165.589,114.386,162.221z"/>
	<path fill-rule="evenodd" clip-rule="evenodd" fill="#341E00" d="M44.358,174.276l0.003-1.574l-0.002-11.811h18.892l0.003,0.403
		l0.003,12.587l-0.002,1.977l-18.901-0.002L44.358,174.276L44.358,174.276z M44.156,176.243l19.483-0.183l-0.175-15.554
		l-19.488,0.18L44.156,176.243z"/>
	<path fill-rule="evenodd" clip-rule="evenodd" fill="#341E00" d="M64.815,160.892l17.314-0.001l0.397,0.004l0.004,14.561
		l-0.002,0.4l-17.714,0.003l-0.002-6.304l0.002-6.294V160.892L64.815,160.892z M64.608,176.241l18.305-0.178l-0.173-15.557
		l-18.307,0.183L64.608,176.241z"/>
	<path fill-rule="evenodd" clip-rule="evenodd" fill="#341E00" d="M4.531,175.955c1.123,0.485,16.046,0.556,17.782,0.271
		c0.797-0.131,0.415-0.113,0.82-0.37L4.531,175.955l0.096-14.66l-0.004-0.405l18.512,0.003c-0.792-0.502,0.912-0.168-1.172-0.415
		c-0.102-0.012-1.016,0.002-1.184,0.002c-0.791,0.003-1.582,0.014-2.374,0.015c-3.15,0.001-11.99-0.234-13.979,0.191
		c-0.468,2.214-0.194,5.345-0.193,7.689L4.531,175.955z"/>
	<path fill-rule="evenodd" clip-rule="evenodd" fill="#341E00" d="M103.378,175.853l-19.289,0.003l0.001-14.964l19.289,0.003
		c-0.785-0.5,0.9-0.17-1.171-0.416l-18.5,0.209l0.176,15.377c2.304,0.486,7.423,0.187,10.045,0.189l8.629-0.025
		C103.364,176.093,102.967,176.116,103.378,175.853z"/>
	<path fill-rule="evenodd" clip-rule="evenodd" fill="#341E00" d="M24.296,175.859c0.705,0.444-0.814,0.179,1.172,0.411
		l17.716-0.206l-0.176-15.374l-18.712,0.202l18.504-0.001l-0.002,14.964L24.296,175.859z"/>
	<path fill-rule="evenodd" clip-rule="evenodd" fill="#8E816F" d="M125.117,175.959l-20.573-0.101
		c0.716,0.451-0.824,0.177,1.171,0.411l19.13-0.197C124.894,175.964,125.026,175.998,125.117,175.959l0.101-15.269l-20.676,0.201
		h20.466L125.117,175.959z"/>
	<path fill-rule="evenodd" clip-rule="evenodd" fill="#341E00" stroke="#000000" stroke-width="1.0811" stroke-miterlimit="10" d="
		M308.287,93.533c-0.003-2.766-0.002-5.531-0.001-8.297c0-1.32,0.101-3.104-0.009-4.368c-0.173-1.983,0.164-1.575-0.535-3.159
		c2.848-0.003,5.347-0.157,8.135-0.005c2.7,0.146,3.646,1.903,4.295,4.208c0.905,3.211,1.136,11.752-4.656,11.767L308.287,93.533
		L308.287,93.533z M318.293,93.767c3.195-1.079,4.617-2.148,5.772-5c1.26-3.112,0.18-6.533-1.287-8.464
		c-1.648-2.169-4.212-2.667-7.928-2.627c-2.472,0.036-8.657-0.367-10.575-0.023l0.129,32.404c5.668,0.368,3.891,0.154,3.881-16.213
		c6.404-0.004,10.344-1.517,11.916,4.414c1.414,5.334-1.818,11.687,4.508,11.842C324.717,100.133,325.98,97.132,318.293,93.767z"/>
	<path fill-rule="evenodd" clip-rule="evenodd" fill="#341E00" stroke="#341E00" stroke-width="1.0811" stroke-miterlimit="10" d="
		M189.351,80.89c0-0.898-0.038-0.973-0.455-1.717l-0.925-1.46c2.892,0,6.03-0.118,8.89-0.014c6.73,0.246,6.792,15.98-0.362,15.981
		h-7.149L189.351,80.89L189.351,80.89z M199.421,93.93c1.328-0.96,2.194-0.775,3.607-2.162c3.407-3.344,3.534-7.746,0.857-11.232
		c-1.831-2.385-3.735-2.923-7.718-2.863c-3.634,0.054-7.217-0.163-10.783-0.166l0,32.62l3.966-0.196l0.001-16.088
		c6.162-0.009,10.443-1.462,12.002,4.601c1.317,5.121-1.863,11.965,4.464,11.594C205.81,103.943,207.081,95.53,199.421,93.93z"/>
	<path fill-rule="evenodd" clip-rule="evenodd" fill="#341E00" stroke="#341E00" stroke-width="1.4414" stroke-miterlimit="10" d="
		M165.229,109.755l0.051-15.911c5.882-0.009,10.157-1.402,11.846,4.077c1.213,3.935,0.469,10.897-2.931,11.735L165.229,109.755
		L165.229,109.755z M174.654,109.939c8.703-0.919,9.704-13.922,0.694-16.029c1.876-1.27,3.073-1.249,4.636-3.123
		c3.44-4.124,1.752-12.687-6.023-13.217c-1.216-0.367-7.349-0.107-9.559-0.124c-0.895-0.007-2.222-0.221-2.946,0.161
		c-0.375,0.633-0.296,0.336-0.296,1.925c0.001,5.501-0.32,29.129,0.237,30.418C162.258,110.554,173.583,110.671,174.654,109.939
		L174.654,109.939z M173.997,78.001l-9.803,0.064c0.572-0.106,0.465-0.235,0.378,0.328c0.485-0.027,0.354-0.127,0.295,0.387
		c0.922,3.69,0.41,10.552,0.413,14.9c6.231,0,10.128,1.508,11.87-4.044c0.663-2.111,0.725-4.726,0.221-6.998
		c-0.267-1.202-0.976-3.177-1.966-4.062C174.341,77.625,174.998,78.083,173.997,78.001z"/>
	<path fill-rule="evenodd" clip-rule="evenodd" fill="#341E00" stroke="#000000" stroke-width="1.0811" stroke-miterlimit="10" d="
		M223.305,109.953c-3.129-1.429-4.8-1.397-6.809-3.916c-5.472-6.862-5.472-16.917-0.826-23.36
		c7.324-10.156,21.28-3.861,21.242,11.251c-0.018,7.201-3.106,12.936-9.509,15.524l-1.296,0.679
		c4.994-1.056,8.493-2.815,10.763-5.591c2.257-2.761,4.328-6.876,4.01-11.909c-1.264-19.988-31.936-19.876-32.572,0.645
		C208.039,101.971,215.081,109.82,223.305,109.953z"/>
	<path fill-rule="evenodd" clip-rule="evenodd" fill="#341E00" stroke="#000000" stroke-width="1.0811" stroke-miterlimit="10" d="
		M248.027,96.439c0.458,1.053,0.298,1.972,0.292,3.173c-0.006,1.114-0.001,2.229-0.001,3.343c0,2.339,0.002,4.679,0.002,7.019
		l3.738-0.033c0.049-1.932-0.49-12.744,0.391-13.466c0.371-2.922,6.931-15.703,7.82-18.864c-1.183,1.841-2.904,6.502-3.933,8.932
		c-1.179,2.788-2.674,6.713-3.985,9.058c-0.748-0.843-7.496-16.354-7.963-18.107l-4.399,0.119L248.027,96.439z"/>
	<path fill-rule="evenodd" clip-rule="evenodd" fill="#341E00" stroke="#000000" stroke-width="1.0811" stroke-miterlimit="10" d="
		M263.147,88.087c0.381-1.281,0.464-1.998,1.219-3.07c0.942,1.359,3.401,10.249,4.104,12.499c1.29,4.13,2.858,8.483,3.836,12.576
		l4.271-0.019l-10.204-32.378c-0.401,0.502-9.68,30.198-10.111,32.361L263.147,88.087z"/>
	<polygon fill-rule="evenodd" clip-rule="evenodd" fill="#341E00" points="218.562,135.383 227.674,135.383 227.673,143.679 
		230.053,143.741 230.053,125.691 227.674,125.773 227.677,133.467 218.562,133.462 218.563,125.69 216.184,125.692 
		216.185,143.741 218.562,143.742 	"/>
	<path fill-rule="evenodd" clip-rule="evenodd" fill="#341E00" d="M256.729,138.059c-1.841,7.351-12.158,4.272-9.159-6.774
		c1.196-4.406,5.208-4.38,7.26-3.077C257.051,129.616,257.559,134.743,256.729,138.059L256.729,138.059z M259.025,138.393
		c1.276-5.135-0.153-10.684-3.753-12.302c-10.836-4.868-14.01,13.786-6.214,17.243C254.052,145.55,258.001,142.511,259.025,138.393z
		"/>
	<path fill-rule="evenodd" clip-rule="evenodd" fill="#341E00" d="M188.935,138.52c-0.275,4.006,4.253,6.05,8.381,5.331
		c6.039-1.052,5.039-6.48,3.205-8.141c-2.198-1.991-8.865-1.985-8.709-5.663c0.089-2.113,2.069-2.838,4.315-2.621
		c2.405,0.232,2.866,1.399,3.548,3.442l2.025,0.002c0.646-3.953-4.188-6.207-8.219-5.194c-5.125,1.288-4.88,6.264-2.229,8.27
		c2.287,1.731,9.223,1.668,8.166,6.001c-0.426,1.745-2.68,2.341-4.828,2.028c-2.353-0.343-2.926-1.438-3.546-3.454L188.935,138.52z"
		/>
	<path fill-rule="evenodd" clip-rule="evenodd" fill="#341E00" d="M276.566,127.652l3.847,0.001
		c2.807,0.001,4.386,0.866,4.332,3.716c-0.052,2.732-2.06,3.352-4.666,3.35l-3.511-0.002L276.566,127.652L276.566,127.652z
		 M276.568,136.639c5.51-0.006,11.95,0.132,10.426-6.838c-1.048-4.793-7.666-4.54-12.849-4.026l0.002,17.951l2.422-0.151V136.639z"
		/>
	<path fill-rule="evenodd" clip-rule="evenodd" fill="#341E00" d="M248.027,96.439c-0.11,2.712-0.04,5.469-0.04,8.188
		c0,6.398-0.533,5.616,2.342,5.617c2.314,0,2.107,0.272,2.099-1.918l0.021-11.85c-0.881,0.722-0.342,11.535-0.391,13.466
		l-3.738,0.033c0-2.34-0.002-4.679-0.002-7.019c0-1.114-0.005-2.229,0.001-3.343C248.325,98.411,248.485,97.492,248.027,96.439z"/>
	<path fill-rule="evenodd" clip-rule="evenodd" fill="#341E00" stroke="#000000" stroke-width="1.0811" stroke-miterlimit="10" d="
		M286.55,88.087c0.381-1.281,0.464-1.998,1.219-3.07c0.942,1.359,3.401,10.249,4.104,12.499c1.29,4.13,2.858,8.483,3.836,12.576
		l4.271-0.019l-10.204-32.378c-0.401,0.502-9.681,30.198-10.112,32.361L286.55,88.087z"/>
	
		<path fill-rule="evenodd" clip-rule="evenodd" fill="none" stroke="#000000" stroke-width="1.2389" stroke-miterlimit="22.9256" d="
		M336.728,57.758c6.504,0,11.777,5.277,11.777,11.787c0,6.51-5.273,11.787-11.777,11.787c-6.504,0-11.777-5.277-11.777-11.787
		C324.951,63.035,330.224,57.758,336.728,57.758z"/>
	<path fill-rule="evenodd" clip-rule="evenodd" d="M329.688,73.291 M332.157,73.291v-6.612h-2.469V65.8h5.932v0.879h-2.469v6.612
		H332.157L332.157,73.291z M336.625,73.291 M336.625,73.291V65.8h1.486l1.768,5.304c0.167,0.492,0.283,0.858,0.366,1.109
		c0.084-0.272,0.22-0.68,0.398-1.203l1.8-5.21h1.329v7.491h-0.952v-6.267l-2.187,6.267h-0.89l-2.165-6.382v6.382H336.625z"/>
</g>
</svg>
