<svg id="Layer_1" data-name="Layer 1" xmlns="http://www.w3.org/2000/svg" viewBox="0 0 512 512"><defs><style>.cls-1{fill:#c19d53;stroke:#231f20;stroke-miterlimit:10;}.cls-2{fill:#341e00;}.cls-2,.cls-3{fill-rule:evenodd;}.cls-3{fill:#8e816f;}</style></defs><rect class="cls-1" width="512" height="512"/><path class="cls-2" d="M289.34,138.18c21.83,11.61,26.32-22.93,8.33-32.89-6.85-3.79-38.17-2.07-48.51-2.06,1.85-4.12,0-.73,2.4-4.08.87-1.22,1.65-1.85,2.47-2.86,12.48-15.61-12-24.21-12.95-9.55,1.19.16,25.41-9.48.64,16.49-18.33,0-40.88-3.19-46.14,12.6-2.46,7.34,0,18.76,4,22.69,7.38,7.29,15.21,1,21.52-1.4,8.45,51.95,3.66,35.83-10.56,87.16-3,10.69-12.3,47.46-11.44,57.45,8.38,10.88,32.17,14.2,48.77,15.17,0,6.22.07,12.43.1,18.65.07,14.08-4,7-4,12.92,0,29.68,3.76,6.85,4,24.57l-.12,45.55c-20.08,0-30.29-2.48-41.17,11.44-2.86,3.65-12.26,21,4.15,21h94.78c18.41,0,4.58-22.94-.5-26.69-9.63-7.11-25.13-5.74-39.11-5.74V348c2.7-6.37-3.9,4.7,1.39-1.7s3.14-4.95,3.15-21c-3.3-.21-4.54.24-4.54-3.25,0-35.93-3.93-20.73,23.75-30.13,9.05-3.07,13.91-7.07,21-10.21-.49-18.54-5.53-44-10.18-61C287.27,171.88,282.11,185.08,289.34,138.18Z"/><path class="cls-2" d="M369.3,457v49.37c-1.36.87-.05.79-2.7,1.24l-28.48.08c-8.66,0-25.55,1-33.16-.62l-.58-50.76,61.06-.68c6.83.81,1.27-.28,3.86,1.37Zm-128.54-.67,60.42-.61.57,51.35-60.41.58-.58-51.32Zm-67.52,0,64.32-.59.58,51.33-64.31.61-.59-51.35Zm-64.95.68,61.76-.66.58,50.74-58.48.68c-6.55-.77-1.54.11-3.86-1.36V457Zm264.85,49.4c2.37,1.49-2.72.58,3.87,1.36l63.13-.65c.17-.36.61-.25.9-.38l.34-50.39-68.24.66v49.4ZM104.45,457c-2.61-1.66,3-.56-3.86-1.37-.34-.05-3.36,0-3.91,0-2.61,0-5.22.05-7.84.05-10.39,0-39.57-.77-46.13.63-1.55,7.31-.65,17.64-.64,25.38l1,25c3.71,1.6,53,1.83,58.69.89,2.63-.43,1.37-.37,2.71-1.22V457ZM38.24,203.8c.88,1.38.71.09,1.17,2.76l.14,303.63H444.86l-.33-309c2.06-2.15-.21-1,1.74.14,6.69,7.46,8.54,17.16,15.09,19.55-2.95-8.41-12-19.49-15.6-26.05,3.43.84,28.61,7.85,33.21,5.56-5.71-4.22-23.79-6.4-32.22-8,5.45-6.17,25.28-17,27.11-21.76-5.57-.18-13.69,8.24-20.56,13.27a27.36,27.36,0,0,1-8.09,4.59c.68-8.55,7.66-27,5.76-32.3-2.83,3.09-5.09,13.08-5.61,18.27-4.79-19.94-4.66-32.24-11.95-51.68-4.37-11.65-16-34.57-22.45-41,2-2.81,11.31,5.25,20.57,10.44,7.24,4.07,14.12,9.41,21.3,11.59-1.73-4.17.22-1.66-4.8-4.78l-41-23.91C415.59,69,452,62.69,459.5,56.33c-3.5-2.09-44.75,13.43-53.81,15.58,2.23-8.18,23.93-37.52,27.18-47.7-6.24,2.28-11.58,15.76-15.13,21.66-3.89,6.46-10.13,18.88-14.71,23.29-4.32-7-12.77-42-15.12-52.25-1.92,1.87-4.27-4,.52,12l9.93,36.52c-12.67-16.33-46-37.54-67.86-46.12C295.59,5.61,267.45,7.15,227.76,7.16c-1.27-1.69-.66-.62-1.64-3.21-.48-1.24-.4-2-1-3.6-38.37-3.48-81.57,15.8-111.78,35.87-28,18.6-53,51.32-65.57,82.43-11.75,29-14.72,50.87-14.78,85.17l5.21,0Zm401,5.17,2.07-5.71c2.7,51.1.69,131.43.69,187.53v46.74c0,2.57.12,5.34.07,7.87l-.4,4.85c-.73,3.61-4.77,2.91-4.84,2.91-16,1.36-178.15,0-194.81,0-13.88,0-190.38,1.24-199.35-.63-2-9.41-.58-198.9-.62-233.09,0-2.62-.06-5.26-.06-7.86,0-4.61-.4-4.95,1.35-7.76h5.22c0-49.3,10.07-82.94,33.51-114.46C98,68,116.66,49.81,140.42,37.33A204.89,204.89,0,0,1,166.47,25.7c24.57-8.74,31.9-7.76,53.59-9.92,10.19-1,2.74-.87,7.15-3.47,8.29-4.9,59.35-.39,70.89,1.73,32.07,5.89,52.42,17.5,75.78,34.55,9.86,7.19,15.73,14.82,19.92,17.76-2.32,1.84-2.19,0-11.51-5.37-3.31-1.9-6.82-4.08-10.71-6.18-4.43-2.39-18.42-11.79-20-10.16S369.4,56.43,373.1,58.51L398.3,74c-10.93,6.76-47.5,13.1-54.81,19.47,1.61.9-.48.61,2.29.55L398,77.72c-4.13,11-24.68,38.25-26.59,46.9,4.83-2.23,2.19-.51,8.13-10.47l14.16-23.48c3.46-5.8,4.12-8.57,8.85-12.14,1.66,8,9.74,41.57,13.45,45.93,2.12-4-2.76-15.71-4-20.44-2-7.33-4.34-14.78-5.88-22,17.32,19.7,38.05,68.42,34.93,104.8-7.45-5.21-12.2-22.67-20.11-26.21,2.78,9.6,14.5,20.83,17.93,29.7-6.35-.77-30.08-7.6-33.85-5.95,3.64,4,26.31,7.54,33.84,8.51l-3.94,3.94c-5.35,4.25-22.91,15.64-24.94,19.58,7.55-1,21.4-15.83,29.7-19.16-.86,5.4-2.35,11.05-3.62,16.19Z"/><path class="cls-2" d="M439.26,209c1.28,2,.19-1.93,1.24,2.78l.2,27.14c0,37.72-1.54,190.89.32,213-131.25,0-266.95,1.06-397.64,0l0-248C41.61,206.61,42,207,42,211.56c0,2.6.06,5.24.06,7.86,0,34.19-1.36,223.68.62,233.09,9,1.87,185.47.64,199.35.63,16.66,0,178.79,1.38,194.81,0,.07,0,4.11.7,4.84-2.91l.4-4.85c.05-2.53-.06-5.3-.07-7.87V390.79c0-56.1,2-136.43-.69-187.53Z"/><path class="cls-2" d="M38.24,203.8V510.85c10.7,2.26,155.24.66,179.12.66H396.54c13.8,0,31,.94,44.33.14,5-.3,4.82-.15,5.12-5.12l-.14-35.25c0-24.21-1-257.61.42-269.9-1.95-1.15.32-2.29-1.74-.14l.33,309H39.55l-.14-303.63C39,203.89,39.12,205.18,38.24,203.8Z"/><path class="cls-2" d="M139.28,468.34l13.92,12.53c-7.62,2.5-7.94,4.84-12.65,10.12l-1.66,1.73c-2.35-6.31-5.32-9.7-11.92-11.85,5.66-6.91,8.58-2.43,12.31-12.53ZM114,479.66c19.85,8.13,16.73,4.53,26.26,23.58,9.76-22.05,5.44-14.05,26.11-23.66-24-7.72-16.93-5.1-24.6-17.08l-2.37-3C135,474.7,129,474,114,479.66Z"/><path class="cls-2" d="M337.93,468.35c.28.21.7.2.82.66l1.55,1.32.7.67,10.85,9.88c-9.29,3-8.74,6.71-14.32,11.84-2.35-6.3-5.31-9.71-11.92-11.85,3.63-4.44,3.77-2.86,7.54-5.53,3.19-2.27,3.45-3.4,4.78-7Zm-25.28,11.44c18.87,6.26,18.11,6.77,26.26,23.45,9.88-22.16,5.35-14,26.13-23.66-25.82-8.31-16.38-5.35-25.14-17.87a15.86,15.86,0,0,0-1.85-2.25C333.64,474.61,327.44,474.11,312.65,479.79Z"/><path class="cls-2" d="M74.15,470.33l10.66,9.72c.16-.27.6.53.87.83-3.84,1.26-5.91,2.26-8.25,4.95-1.59,1.83-1.45,2.32-2.73,3.84-2.59,3.08-.92,1.28-3.31,3.05C69,486.43,66.07,483,59.46,480.87l4.23-3.66c4.52-2.95,5.51-1.91,8.09-8.87a18,18,0,0,1,2.37,2Zm-.91-10.87a9.88,9.88,0,0,0-1.79,2.18c-9.55,14,.45,8.58-25,18.14,19,6.34,18,6.75,26.26,23.45,7.78-17.49,6.64-17.29,26.12-23.36C82,472.74,80.1,477.17,73.24,459.46Z"/><path class="cls-2" d="M260.59,478.38c4.87-3.87,6.67-1.59,9.84-10a17.08,17.08,0,0,1,2.36,2l11.54,10.54c-10.66,3.5-7.37,6.77-14.32,11.86-2.33-6.31-5.32-9.71-11.92-11.86l2.5-2.49Zm-15.45,1.41c19.58,7.41,17.23,5.13,26.26,23.45,9.53-21.45,6.19-14.57,26.12-23.67-17.39-5.52-19.36-4.05-25.64-20.1-4.45,4.49-3.92,9.63-9.75,13.7C257.56,476.36,250.7,477.67,245.14,479.79Z"/><path class="cls-2" d="M206.81,468.34l13.89,12.54c-8.47,2.78-8,5.27-11,8.79l-3.32,3.05c-2.36-6.29-5.32-9.71-11.92-11.85,3.61-4.42,3.77-2.87,7.53-5.54,3.11-2.21,3.48-3.47,4.79-7Zm-25.29,11.45c19,6.28,18,6.8,26.26,23.44,7.78-17.49,6.64-17.29,26.12-23.36-16.9-7.13-18.78-2.7-25.63-20.41-.22.22-.55.28-.63.7s-.5.57-.61.73c-3.91,5.58-3.37,8.68-8.52,12.28C193.94,476.36,187.07,477.66,181.52,479.79Z"/><path class="cls-2" d="M392.46,480.35c6.93-2.58,9.13-5.25,13.17-10.1,5.55,5,4,6.71,13.08,10.25-4.58,4.54-9.64,7.26-12.42,13.19-6.58-4.74,1.65-1.11-12.42-12l-1.41-1.33Zm13.17-19c-4.72,5.63-2.8,8.19-9.81,13.16-5.45,3.86-11.7,3.83-16.3,7C386.57,483,393.15,485,397,489c4.26,4.42,4.91,9.31,8.6,14.7,3.68-4.84,4.45-12,9-15.63,4.94-4,12.1-4.44,17.21-7.5C409,475.52,413.62,472.48,405.63,461.36Z"/><path class="cls-2" d="M174.5,501.14V457h62.36v49.4H174.49v-5.22Zm-.67,6.5,64.31-.61-.58-51.33-64.32.59Z"/><path class="cls-2" d="M242,457h58.46v49.38H242V457Zm-.68,50.66,60.41-.58-.57-51.35-60.42.61Z"/><path class="cls-2" d="M43.05,506.69c3.71,1.6,53,1.83,58.69.89,2.63-.43,1.37-.37,2.71-1.22l-61.4.33.32-48.39V457l61.09,0c-2.61-1.66,3-.56-3.86-1.37-.34-.05-3.36,0-3.91,0-2.61,0-5.22.05-7.84.05-10.39,0-39.57-.77-46.13.63-1.55,7.31-.65,17.64-.64,25.38Z"/><path class="cls-2" d="M369.3,506.35H305.63V457H369.3c-2.59-1.65,3-.56-3.86-1.37l-61.06.68.58,50.76c7.61,1.6,24.5.61,33.16.62l28.48-.08C369.25,507.14,367.94,507.22,369.3,506.35Z"/><path class="cls-2" d="M108.29,506.37c2.32,1.47-2.69.59,3.86,1.36l58.48-.68-.58-50.74-61.76.66h61.07v49.39Z"/><path class="cls-3" d="M441,506.7l-67.9-.33c2.37,1.49-2.72.58,3.87,1.36l63.13-.65c.17-.36.61-.25.9-.38l.34-50.39-68.24.66h67.54Z"/></svg>