<svg id="Layer_1" data-name="Layer 1" xmlns="http://www.w3.org/2000/svg" viewBox="0 0 512 512"><defs><style>.cls-1{fill:#341e00;}.cls-1,.cls-2{fill-rule:evenodd;}.cls-2{fill:#8e816f;}</style></defs><path class="cls-1" d="M289.18,138.76C310.9,150.32,315.37,116,297.46,106c-6.81-3.77-38-2.06-48.26-2,1.83-4.09,0-.72,2.38-4.06.86-1.21,1.65-1.83,2.45-2.84,12.42-15.53-11.89-24.09-12.88-9.51,1.19.17,25.29-9.43.64,16.41-18.24,0-40.68-3.17-45.92,12.54-2.43,7.31,0,18.66,4,22.58,7.34,7.26,15.13,1,21.42-1.39,8.4,51.69,3.64,35.65-10.52,86.73-2.94,10.63-12.24,47.22-11.38,57.17,8.34,10.82,32,14.12,48.53,15.08,0,6.2.07,12.38.1,18.57.07,14-4,7-4,12.85,0,29.54,3.74,6.82,4,24.45l-.11,45.33c-20,0-30.14-2.47-41,11.38-2.84,3.64-12.2,20.89,4.13,20.89h94.31c18.33,0,4.56-22.83-.5-26.56-9.57-7.08-25-5.71-38.91-5.71v-50.4c2.69-6.33-3.88,4.68,1.38-1.68s3.13-4.93,3.14-20.92c-3.28-.21-4.52.24-4.52-3.24,0-35.75-3.91-20.63,23.64-30,9-3.06,13.83-7,20.85-10.17-.48-18.44-5.51-43.79-10.13-60.71C287.11,172.3,282,185.43,289.18,138.76Z"/><path class="cls-1" d="M368.74,456v49.12c-1.35.87-.05.79-2.69,1.24l-28.34.08c-8.61,0-25.42,1-33-.62l-.58-50.5,60.76-.69c6.8.81,1.26-.28,3.84,1.37Zm-127.91-.67,60.13-.61.57,51.1-60.12.58-.58-51.07Zm-67.18,0,64-.6.58,51.09-64,.6-.59-51.09ZM109,456l61.45-.66.58,50.49-58.19.67c-6.52-.76-1.53.11-3.84-1.34V456Zm263.55,49.16c2.35,1.48-2.71.58,3.84,1.35l62.83-.65c.16-.36.59-.25.89-.37l.33-50.15-67.9.66v49.16ZM105.2,456c-2.6-1.64,3-.55-3.85-1.36-.33,0-3.33,0-3.89,0-2.59,0-5.19.05-7.79.05-10.35,0-39.38-.77-45.91.63-1.54,7.27-.64,17.55-.64,25.25l1,24.89c3.69,1.59,52.7,1.82,58.4.89,2.62-.43,1.37-.37,2.7-1.21V456ZM39.32,204.06c.87,1.38.7.09,1.16,2.74l.13,302.13,403.32,0-.33-307.44c2-2.14-.21-1,1.73.14,6.65,7.42,8.49,17.08,15,19.46-2.94-8.38-11.91-19.4-15.52-25.93,3.41.83,28.47,7.81,33,5.54-5.68-4.2-23.67-6.37-32.06-8,5.42-6.13,25.16-16.88,27-21.65-5.53-.17-13.62,8.2-20.46,13.21a27.15,27.15,0,0,1-8,4.56c.67-8.5,7.61-26.84,5.73-32.14-2.82,3.08-5.07,13-5.58,18.18-4.77-19.84-4.64-32.08-11.9-51.42-4.34-11.59-15.89-34.4-22.33-40.79,2-2.8,11.25,5.23,20.46,10.39,7.21,4.05,14,9.36,21.2,11.53-1.73-4.15.22-1.65-4.78-4.75l-40.75-23.8c8.47-6.16,44.67-12.41,52.16-18.74C455,55.23,414,70.68,405,72.82c2.22-8.14,23.82-37.34,27.05-47.47C425.79,27.62,420.47,41,416.94,46.9c-3.87,6.44-10.08,18.79-14.63,23.18-4.3-7-12.71-41.82-15.05-52-1.91,1.86-4.25-4,.52,11.94l9.88,36.34C385.05,50.12,351.87,29,330.13,20.48,295.4,6.85,267.4,8.37,227.9,8.38c-1.27-1.68-.65-.61-1.64-3.18-.47-1.24-.39-2-.94-3.59C187.13-1.85,144.15,17.33,114.08,37.3c-27.87,18.51-52.71,51.07-65.24,82C37.15,148.2,34.19,170,34.13,204.07Zm399,5.15,2.06-5.69c2.68,50.84.69,130.78.69,186.6v46.51c0,2.56.11,5.32.07,7.84l-.41,4.83c-.73,3.59-4.75,2.89-4.81,2.89-15.94,1.35-177.27,0-193.85,0-13.82,0-189.44,1.24-198.36-.63-2-9.36-.59-197.92-.62-231.94,0-2.61-.07-5.23-.07-7.82,0-4.59-.39-4.92,1.35-7.72H49.6c0-49.06,10-82.53,33.35-113.9C98.73,69,117.34,50.83,141,38.41a204.91,204.91,0,0,1,25.92-11.58c24.45-8.69,31.74-7.71,53.33-9.87,10.13-1,2.72-.86,7.11-3.45,8.26-4.88,59.06-.39,70.54,1.72,31.92,5.86,52.16,17.42,75.41,34.38,9.81,7.16,15.65,14.75,19.82,17.68-2.31,1.83-2.18,0-11.46-5.34-3.28-1.9-6.78-4.07-10.65-6.15-4.4-2.38-18.33-11.74-19.89-10.12s17.72,11.74,21.4,13.8L397.6,74.9c-10.88,6.73-47.27,13-54.54,19.38,1.6.9-.47.61,2.28.55l52-16.23c-4.11,10.9-24.56,38.07-26.46,46.67,4.81-2.22,2.18-.51,8.09-10.42L393,91.48c3.44-5.76,4.1-8.52,8.8-12.07,1.66,7.94,9.7,41.36,13.39,45.7,2.11-3.94-2.74-15.63-4-20.34-2-7.29-4.32-14.71-5.85-21.89,17.23,19.6,37.86,68.08,34.76,104.28-7.41-5.18-12.14-22.56-20-26.08,2.77,9.56,14.44,20.73,17.85,29.55-6.32-.76-29.93-7.56-33.68-5.92,3.62,3.94,26.17,7.51,33.67,8.47L434,197.1c-5.33,4.23-22.8,15.56-24.82,19.49,7.52-1,21.29-15.75,29.55-19.07-.85,5.38-2.34,11-3.6,16.11Z"/><path class="cls-1" d="M438.36,209.21c1.27,2,.19-1.92,1.23,2.76l.2,27c0,37.54-1.54,190,.32,211.9-130.61,0-265.64,1.05-395.68,0l0-246.79c-1.74,2.8-1.35,3.13-1.35,7.72,0,2.59.07,5.21.07,7.82,0,34-1.36,222.58.62,231.94,8.92,1.87,184.54.64,198.36.63,16.58,0,177.91,1.37,193.85,0,.06,0,4.08.7,4.81-2.89l.41-4.83c0-2.52-.07-5.28-.07-7.84V390.12c0-55.82,2-135.76-.69-186.6Z"/><path class="cls-1" d="M39.32,204.06V509.59c10.66,2.26,154.48.66,178.25.66H395.85c13.73,0,30.82.94,44.11.14,5-.3,4.8-.15,5.1-5.1l-.14-35.07c0-24.09-1-256.34.41-268.57-1.94-1.15.32-2.28-1.73-.14L443.93,509l-403.32,0L40.48,206.8C40,204.15,40.19,205.44,39.32,204.06Z"/><path class="cls-1" d="M139.86,467.29l13.85,12.47c-7.58,2.49-7.9,4.82-12.59,10.07l-1.65,1.72c-2.34-6.28-5.3-9.65-11.86-11.79,5.63-6.88,8.54-2.42,12.25-12.47Zm-25.14,11.27c19.75,8.08,16.64,4.5,26.13,23.46,9.71-21.94,5.41-14,26-23.54-23.93-7.68-16.85-5.08-24.49-17l-2.35-3C135.56,473.62,129.61,472.92,114.72,478.56Z"/><path class="cls-1" d="M337.53,467.3c.28.21.69.2.81.66l1.54,1.31c.19.17.5.47.7.67l10.79,9.83c-9.23,3-8.69,6.68-14.24,11.78-2.34-6.26-5.29-9.66-11.87-11.79,3.62-4.42,3.75-2.85,7.51-5.51,3.18-2.25,3.43-3.38,4.76-6.95Zm-25.16,11.38c18.78,6.24,18,6.75,26.13,23.34,9.83-22,5.32-13.91,26-23.55-25.69-8.26-16.29-5.32-25-17.78a15.65,15.65,0,0,0-1.83-2.24C333.25,473.53,327.09,473,312.37,478.68Z"/><path class="cls-1" d="M75,469.27l10.61,9.67c.16-.26.6.54.87.83C82.7,481,80.64,482,78.31,484.7c-1.59,1.82-1.44,2.31-2.71,3.82-2.58,3.07-.92,1.27-3.3,3C70,485.3,67,481.89,60.43,479.76l4.21-3.64c4.5-2.94,5.48-1.91,8-8.83a17.72,17.72,0,0,1,2.35,2Zm-.89-10.82a9.84,9.84,0,0,0-1.79,2.18c-9.5,14,.44,8.54-24.82,18.05,18.93,6.3,17.9,6.71,26.13,23.33,7.74-17.4,6.6-17.21,26-23.24C82.84,471.67,81,476.08,74.15,458.45Z"/><path class="cls-1" d="M260.57,477.29c4.84-3.86,6.63-1.59,9.79-10a16.84,16.84,0,0,1,2.34,2l11.49,10.49c-10.61,3.48-7.33,6.73-14.25,11.8-2.32-6.27-5.29-9.66-11.86-11.8l2.49-2.47Zm-15.37,1.39c19.48,7.38,17.13,5.11,26.13,23.34,9.48-21.35,6.16-14.5,26-23.55-17.31-5.49-19.27-4-25.52-20-4.43,4.47-3.9,9.59-9.7,13.64C257.55,475.27,250.73,476.57,245.2,478.68Z"/><path class="cls-1" d="M207.05,467.29l13.83,12.48c-8.43,2.77-7.92,5.24-10.92,8.75l-3.3,3c-2.36-6.25-5.3-9.66-11.87-11.79,3.59-4.4,3.75-2.85,7.49-5.51,3.1-2.21,3.46-3.45,4.77-7Zm-25.16,11.39c18.91,6.25,17.93,6.77,26.13,23.33,7.74-17.4,6.61-17.21,26-23.24-16.81-7.1-18.69-2.69-25.51-20.32-.22.23-.54.28-.62.71s-.5.56-.61.72c-3.88,5.55-3.35,8.64-8.48,12.22C194.24,475.27,187.41,476.57,181.89,478.68Z"/><path class="cls-1" d="M391.78,479.24c6.91-2.57,9.09-5.22,13.11-10.05,5.52,5,4,6.68,13,10.21-4.56,4.51-9.59,7.21-12.36,13.12-6.55-4.72,1.64-1.1-12.36-11.95l-1.41-1.33Zm13.11-18.89c-4.69,5.6-2.79,8.14-9.76,13.09-5.42,3.84-11.64,3.81-16.22,6.94,7,1.48,13.56,3.45,17.42,7.45,4.24,4.4,4.89,9.26,8.56,14.63,3.66-4.82,4.43-11.91,8.93-15.55,4.92-4,12-4.42,17.13-7.47C408.28,474.43,412.84,471.41,404.89,460.35Z"/><path class="cls-1" d="M174.91,499.94V456h62v49.16H174.89l0-5.19Zm-.67,6.46,64-.6-.58-51.09-64,.6Z"/><path class="cls-1" d="M242.09,456h58.17v49.13l-58.18,0V456Zm-.68,50.41,60.12-.58-.57-51.1-60.13.61Z"/><path class="cls-1" d="M44.1,505.45c3.69,1.59,52.7,1.82,58.4.89,2.62-.43,1.37-.37,2.7-1.21l-61.1.32.32-48.15V456H105.2c-2.6-1.64,3-.55-3.85-1.36-.33,0-3.33,0-3.89,0-2.59,0-5.19.05-7.79.05-10.35,0-39.38-.77-45.91.63-1.54,7.27-.64,17.55-.64,25.25Z"/><path class="cls-1" d="M368.74,505.11H305.39V456h63.35c-2.58-1.65,3-.56-3.84-1.37l-60.76.69.58,50.5c7.57,1.59,24.38.61,33,.62l28.34-.08C368.69,505.9,367.39,506,368.74,505.11Z"/><path class="cls-1" d="M109,505.14c2.31,1.45-2.68.58,3.84,1.34l58.19-.67-.58-50.49L109,456h60.77v49.14Z"/><path class="cls-2" d="M440.13,505.47l-67.56-.33c2.35,1.48-2.71.58,3.84,1.35l62.83-.65c.16-.36.59-.25.89-.37l.33-50.15-67.9.66h67.21Z"/></svg>